<?xml version="1.0" encoding="utf-8"?>
<!-- Generator: Adobe Illustrator 16.0.0, SVG Export Plug-In . SVG Version: 6.00 Build 0)  -->
<!DOCTYPE svg PUBLIC "-//W3C//DTD SVG 1.1//EN" "http://www.w3.org/Graphics/SVG/1.1/DTD/svg11.dtd">
<svg version="1.1" id="Layer_1" xmlns="http://www.w3.org/2000/svg" xmlns:xlink="http://www.w3.org/1999/xlink" x="0px" y="0px"
	 width="9744.61px" height="4626.23px" viewBox="0 0 9744.61 4626.23" enable-background="new 0 0 9744.61 4626.23"
	 xml:space="preserve">
<path fill="#511156" d="M3708.444,2148.982c-17.045,67.162-63.917,133.107-99.222,191.341
	c-15.015,24.756-35.509,66.758-57.626,87.252c-15.637,26.205-34.812,58.235-56.814,94.757
	c-78.327,130.016-85.427,139.422-99.626,144.673c-131.688,48.697-227.257-120.729-264.389-224.011
	c-41.19-114.438-41.19-235.98-6.29-351.637c20.403-67.616,72.094-146.377,99.019-191.342c24.432-40.8,46.409-73.747,62.154-96.522
	c-12.219,59.819-23.485,154.992,0.547,267.09c5.688,26.534,14.45,59.794,30.636,97.675c38.146,89.28,118.701,220.561,227.865,202.3
	c27.799-297.666-256.881-545.011-186.268-852.821c15.218-66.756,64.321-134.121,99.22-191.341
	c7.508-12.377,78.933-110.382,75.888-97.396C3458.259,1557.709,3792.649,1818.04,3708.444,2148.982"/>
<path fill="#511156" d="M3285.657,1805.463c0.104-0.218,0.207-0.43,0.306-0.635c-104.928-24.494-215.932,21.006-297.945,90.888
	c-82.013,69.881-141.216,162.018-203.359,250.04c-140.4,198.873-307.782,388.01-526.675,494.539
	c-218.893,106.529-498.498,115.182-693.614-30.394c-149.047-111.204-230.672-301.584-224.053-487.426
	c9.764-274.136,184.896-448.7,231.024-492.574c304.056-289.198,841.839-304.265,1110.208-63.3
	c31.94,28.679,96.96,115.688,97.088,115.581c0.123-0.102-59.434-76.494-97.088-115.581
	c-187.652-194.798-517.185-175.08-592.883-170.549c-61.991,3.709-423.037,31.472-681.58,329.28
	c-232.711,268.052-387.241,761.124-137.671,1066.423c154.545,189.054,433.335,267.322,645.204,215.057
	c243.255-60.007,435.19-227.277,593.298-414.344c152.19-180.065,314.49-551.517,602.85-483.787
	C3164.851,2121.385,3265.588,1847.58,3285.657,1805.463"/>
<path fill="#511156" d="M2785.274,1713.908"/>
</svg>
