<svg id="Group_2" data-name="Group 2" xmlns="http://www.w3.org/2000/svg" width="175.388" height="121.997" viewBox="0 0 175.388 121.997">
  <path id="Path_9" data-name="Path 9" d="M3140.458,1290.428c-1.159,4.565-4.345,9.047-6.744,13.006-1.021,1.683-2.414,4.537-3.917,5.93-1.063,1.781-2.366,3.958-3.862,6.441-5.324,8.837-5.806,9.477-6.771,9.833-8.951,3.31-15.447-8.206-17.971-15.226a37.8,37.8,0,0,1-.427-23.9c1.387-4.6,4.9-9.949,6.73-13.006,1.661-2.773,3.154-5.013,4.225-6.561a44.231,44.231,0,0,0,.037,18.154,35.6,35.6,0,0,0,2.082,6.639c2.593,6.068,8.068,14.992,15.488,13.75,1.889-20.232-17.461-37.045-12.661-57.967,1.035-4.537,4.372-9.116,6.744-13.006.51-.841,5.365-7.5,5.158-6.62-5.116,22.343,17.613,40.037,11.889,62.532" transform="translate(-2966.001 -1227.816)" fill="#511156"/>
  <path id="Path_10" data-name="Path 10" d="M1287.51,1421.314l.021-.043c-7.132-1.665-14.677,1.428-20.251,6.178s-9.6,11.012-13.822,17c-9.543,13.517-20.92,26.373-35.8,33.614s-33.883,7.829-47.145-2.066c-10.131-7.558-15.679-20.5-15.229-33.13.664-18.633,12.568-30.5,15.7-33.48,20.667-19.657,57.22-20.681,75.461-4.3,2.171,1.949,6.59,7.863,6.6,7.856s-4.04-5.2-6.6-7.856c-12.755-13.241-35.153-11.9-40.3-11.592-4.214.252-28.754,2.139-46.327,22.381-15.818,18.22-26.321,51.734-9.358,72.485,10.5,12.85,29.454,18.17,43.855,14.618,16.534-4.079,29.58-15.448,40.327-28.163,10.344-12.239,21.376-37.487,40.976-32.883,3.676.864,10.523-17.747,11.887-20.61" transform="translate(-1141.79 -1382.051)" fill="#511156"/>
  <rect id="Rectangle_3" data-name="Rectangle 3" width="17.755" height="17.755" transform="translate(133.034 8.463) rotate(45)" fill="#511156"/>
  <rect id="Rectangle_4" data-name="Rectangle 4" width="17.755" height="17.755" transform="translate(120.344 80.487) rotate(45)" fill="#511156"/>
  <path id="Path_13" data-name="Path 13" d="M1706.275,1534.35c-5.048-8.592-17.791-10.937-14.233-23.267.207-.717-4.358,5.393-4.882,6.248-2.317,3.806-5.131,7.971-6.372,12.3-.124.441-.234.883-.317,1.3a50.371,50.371,0,0,0-4.041,5.82c-4.924,8.247-11.406,18.219-10.84,28.259.634,11.033,11.226,18.3,21.115,20.688,1.945.469,5.379-6.8,7.958-12.592.138-.179.29-.372.441-.593a95.407,95.407,0,0,0,7.958-13.764c3.558-7.254,7.765-16.633,3.214-24.4m-24.646,22.439a17.472,17.472,0,0,1-4.262-16.481,16.667,16.667,0,0,1,2.772-5.627c.358,6.248,5.517,9.765,10.633,14.316,5.461,4.855,6.9,10.578,5.461,16.757a31.044,31.044,0,0,1-14.605-8.965" transform="translate(-1629.954 -1491.775)" fill="#511156"/>
  <path id="Path_14" data-name="Path 14" d="M2359.131,1666.42l10.129,10.128-8.345,8.345-.468.468-.45.45.45.468.468.45,8.345,8.363-10.129,10.111-10.111-10.111,8.345-8.363.45-.45.468-.468-.468-.45-.45-.468-8.345-8.345Z" transform="translate(-2266.964 -1636.608)" fill="#511156"/>
  <text id="للحلول_الرقمية" data-name="للحلول الرقمية" transform="translate(111.98 114.782)" fill="#4c0d50" font-size="10" font-family="GESSTwoLight-Light, GE SS Two" font-weight="300"><tspan x="-30.415" y="0">للحلول الرقمية</tspan></text>
</svg>
