<svg xmlns="http://www.w3.org/2000/svg" viewBox="0 0 162.84 132.17"><defs><style>.cls-1{fill:#501b54;}.cls-2{fill:#4c1a51;}.cls-3{fill:#4d1a51;}.cls-4{fill:#4e1b53;}.cls-5{fill:#4d1a52;}.cls-6{fill:#49184e;}.cls-7{fill:#4a184e;}.cls-8{fill:#441448;}.cls-9{fill:#47164b;}.cls-10{fill:#511d55;}.cls-11{fill:#46154b;}.cls-12{fill:#411144;}.cls-13{fill:#3e0f41;}.cls-14{fill:#451448;}.cls-15{fill:#532057;}.cls-16{fill:#39103c;}.cls-17{fill:#2c112e;}.cls-18{fill:#351237;}.cls-19{fill:#401143;}.cls-20{fill:#361339;}.cls-21{fill:#351138;}.cls-22{fill:#552258;}.cls-23{fill:#3c0f3f;}.cls-24{fill:#5f2c5d;}.cls-25{fill:#3b123d;}.cls-26{fill:#562559;}.cls-27{fill:#6b4069;}.cls-28{fill:#74496f;}.cls-29{fill:#7b5a7c;}.cls-30{fill:#6c4f75;}.cls-31{fill:#6d456d;}.cls-32{fill:#6e496f;}.cls-33{fill:#6d486f;}.cls-34{fill:#6b3e68;}.cls-35{fill:#623563;}.cls-36{fill:#501c55;}.cls-37{fill:#b6a1b4;}.cls-38{fill:#795276;}.cls-39{fill:#b9a5b8;}.cls-40{fill:#9f829c;}.cls-41{fill:#c6b7c5;}.cls-42{fill:#8a6c8a;}.cls-43{fill:#7b597b;}.cls-44{fill:#84436a;}.cls-45{fill:#734a70;}.cls-46{fill:#693a66;}.cls-47{fill:#5b1c55;}.cls-48{fill:#643462;}.cls-49{fill:#b08ca1;}.cls-50{fill:#652b5d;}.cls-51{fill:#763d67;}.cls-52{fill:#74476e;}.cls-53{fill:#996b88;}.cls-54{fill:#9f7b94;}.cls-55{fill:#b097ab;}.cls-56{fill:#cabcc9;}.cls-57{fill:#c7b4c3;}.cls-58{fill:#b9a2b4;}.cls-59{fill:#b296aa;}.cls-60{fill:#ad8da3;}.cls-61{fill:#a1829b;}.cls-62{fill:#ac93a8;}.cls-63{fill:#f8f7f9;}.cls-64{fill:#f9f8fa;}.cls-65{fill:#fbfbfc;}.cls-66{fill:#f9f9fa;}</style></defs><title>Asset 2</title><g id="Layer_2" data-name="Layer 2"><g id="Layer_1-2" data-name="Layer 1"><path class="cls-1" d="M68.43,29.66c-1.26,0-2.52,0-3.78,0a1.59,1.59,0,0,0-1.28.55c-1.81,1.85-3.65,3.67-5.53,5.57-1.3-1.31-2.6-2.54-3.81-3.84a1.93,1.93,0,0,0-2.18-.65A53.87,53.87,0,0,0,29.22,42.43C21.53,49,16.13,57.07,13.76,67,11,78.65,12.88,89.54,20,99.33A32.29,32.29,0,0,0,39.56,112a45.58,45.58,0,0,0,26.19-2A60.31,60.31,0,0,0,84.09,99a108.61,108.61,0,0,0,17-18.57c1-1.31,1.95-2.63,2.93-4a1.26,1.26,0,0,1,.38,1.42,2.35,2.35,0,0,0,.69,2.8c-5.5,5.37-9.69,11.75-14.06,18a97.54,97.54,0,0,1-21.5,22.41A57.45,57.45,0,0,1,49.59,131a37,37,0,0,1-13.21,1,43,43,0,0,1-20.6-7.37A34.82,34.82,0,0,1,.58,100.47,52,52,0,0,1,1.87,79.14,70.84,70.84,0,0,1,16,51.19,58.86,58.86,0,0,1,41.53,33.42a70.19,70.19,0,0,1,10.94-3l-4-4.07L57,17.72,48.5,9.19,57.76,0l9.31,9.31c0,.12-.34.32-.58.56-2.35,2.35-4.71,4.7-7,7.06-.86.86-.95.64,0,1.56,2.46,2.45,4.9,4.91,7.35,7.37.14.14.28.3.51.55l-2.94,2.84,4.75.21C69,30,68.67,29.69,68.43,29.66Z"/><path class="cls-1" d="M60.44,93.91c-.81,1.39-1.38,2.89-2.08,4.33a49.17,49.17,0,0,1-3.1,5.71,9.06,9.06,0,0,1-1.39,1.7,1.46,1.46,0,0,1-1.44.4c-5.76-1.55-10.89-4.17-14.89-8.7A17.44,17.44,0,0,1,33.3,82.54a35.33,35.33,0,0,1,3.4-10.41A123.24,123.24,0,0,1,45.6,57a11.14,11.14,0,0,0,1.87-3.68A14.51,14.51,0,0,1,48.82,50a70.45,70.45,0,0,1,8-12.38c.06-.07.15-.13.22-.2.41,0,.35.22.26.48-.07.59-.16,1.17-.21,1.77a9.79,9.79,0,0,0,2,6.88A24.24,24.24,0,0,0,63,50.41c1.55,1.32,3.14,2.57,4.62,4a15.28,15.28,0,0,1,4.77,7.74,17.92,17.92,0,0,1-.21,8.11,5.33,5.33,0,0,1-.51,1.69,2.46,2.46,0,0,0-1.7-1.1A7.47,7.47,0,0,1,67,69.48,3.08,3.08,0,0,0,65.46,69c-1.51-.24-3.07-.29-4.4-1.18A1.1,1.1,0,0,0,60,67.72c-1.62.71-3.41.92-5,1.71-.39.19-.83.07-1.23.17a.76.76,0,0,1-.49-.16c-3-2.45-5.74-5-6.64-9a3.18,3.18,0,0,1-.16-1A15.56,15.56,0,0,0,44.11,65a15.88,15.88,0,0,0,4.25,14.2,28.65,28.65,0,0,0,13.08,8,.44.44,0,0,1,.2.24.82.82,0,0,1,0,.31c0,.22-.07.43-.08.64C61.3,90.29,60.91,92.11,60.44,93.91Z"/><path class="cls-1" d="M139.25,42.45A20.52,20.52,0,0,1,141,33.89a24,24,0,0,1,1.08-2.15A90.28,90.28,0,0,1,149.86,20c.25-.32.53-.62.89-1a3.61,3.61,0,0,1-.15,1.71,32.1,32.1,0,0,0,1,13.61,97.2,97.2,0,0,0,5,13.33,102.72,102.72,0,0,1,4.87,12.82,35.27,35.27,0,0,1,1.4,10.47,24.12,24.12,0,0,1-2.89,11.15c-.53,1-1.05,1.9-1.61,2.82-1.41,2.3-2.84,4.58-4.18,6.91a9,9,0,0,1-2.07,2.74,7.21,7.21,0,0,1-.44-3.62c.49-5.79-.81-11.29-2.8-16.67-1.58-4.29-3.51-8.43-5.24-12.65a3,3,0,0,1-.37-1.08,7.81,7.81,0,0,0,.75-3,22.43,22.43,0,0,0-.95-9A16.74,16.74,0,0,0,139.25,42.45Z"/><path class="cls-1" d="M135.9,109.45a10.69,10.69,0,0,1-4-2.85,22.6,22.6,0,0,1-3.17-4.17,35,35,0,0,1-5.26-19.33,34.17,34.17,0,0,1,1.1-7.86c.16-.62-.12-.7-.51-.84a2,2,0,0,0,1-1.4c0-.08.06-.16.09-.25a2.81,2.81,0,0,0,.16-.49,2.49,2.49,0,0,1,.09-.37c0-.12.08-.24.11-.36s.07-.25.12-.38.11-.34.15-.52c.24-1,.69-1.92,1-2.91l.1-.27.18-.41c.43-1.15.95-2.26,1.43-3.38a25.86,25.86,0,0,1,1.81-3.41,1.77,1.77,0,0,1,.16-.22c0-.08.09-.15.14-.23l.13-.23.2-.36a16.54,16.54,0,0,1,2.58-3.08,2.75,2.75,0,0,1,1.5-.84c.42.16.16.46.12.69a41.94,41.94,0,0,0-.71,7.91,37,37,0,0,0,4.19,17.21c.09.19.16.38.24.58a18.14,18.14,0,0,0-.11,4.48A96.81,96.81,0,0,0,140,95.9a21.05,21.05,0,0,1-.17,7.08A11.35,11.35,0,0,1,135.9,109.45Z"/><path class="cls-1" d="M130.38,4.62,141.71,16,130.19,27.48,118.85,16.14Z"/><path class="cls-1" d="M121.44,105.4a7.77,7.77,0,0,0-.8.54q-5.13,5.11-10.25,10.25c-.07.07-.14.15-.22.22-.54.52-.55.53-1.06,0q-5.31-5.31-10.62-10.62c-.61-.6-.48-.6,0-1,.8-.79,1.58-1.59,2.38-2.38l8.24-8.24c.31-.31.52-.59,1-.11C113.77,97.77,117.5,101.46,121.44,105.4Z"/><path class="cls-2" d="M105,80.72c-1.16-.54-1.54-1.31-1-2.39.32-.67-.05-1.22,0-1.83,3.49-5.19,7-10.38,11.63-14.67A7,7,0,0,1,117,60.72a1.88,1.88,0,0,1,.5,1.23,29.85,29.85,0,0,1,.17,8.65,17,17,0,0,1-.79,2.48,1.66,1.66,0,0,0,0,1.12c-1,.35-2.08.54-3.1.92a25.44,25.44,0,0,0-7.3,4.46c-.37.31-.76.61-1.14.92a.32.32,0,0,0-.24.22Z"/><path class="cls-3" d="M135.9,109.45a.94.94,0,0,1,.4-.7,15.77,15.77,0,0,0,2.28-3,9.38,9.38,0,0,0,1.1-3.35,29.77,29.77,0,0,0,.19-5.74,10.86,10.86,0,0,0-.36-2.26c-.25-1.12-.36-2.26-.63-3.38a9.81,9.81,0,0,1-.22-2c-.06-2.19-.38-4.38-.25-6.58,0-.37,0-.71.47-.81h0c0,.13.09.19.16.27h0c.13.1.09.3.22.4h0c.12.12.07.33.24.41h0c.09.13,0,.36.26.41l0,0c0,.14.09.2.17.27.95,1.34,1.93,2.66,3,3.93-.31.3-.47-.1-.65-.14.14,2,.65,4,.89,6,.18,1.47.71,3,.9,4.47a17.39,17.39,0,0,1-2,10.84,3.81,3.81,0,0,0-.6,1.44,1.42,1.42,0,0,1-1,.2,6.92,6.92,0,0,1-2.27,0l-.36-.05c-.19-.15-.46,0-.65-.17H137l-.09,0c-.13-.11-.31-.07-.45-.17h-.1l-.08-.06c-.09-.06-.18-.15-.3-.14h-.07Z"/><path class="cls-4" d="M53.74,69.57c0-.14.07-.34.22-.3a1.52,1.52,0,0,0,1.44-.4,1.29,1.29,0,0,1,1.17-.32.52.52,0,0,0,.5,0c.85-.59,1.92-.58,2.8-1.08a1.16,1.16,0,0,1,1.45.17,3,3,0,0,0,1.71.68,16.51,16.51,0,0,0,3,.46,1.58,1.58,0,0,1,1.06.39,6.65,6.65,0,0,0,3.16,1.48c.2,0,.39.15.59.18a.92.92,0,0,1,.82,1.13,17.85,17.85,0,0,1-1.19,3.55,16.79,16.79,0,0,1-1.33,2.93,59.79,59.79,0,0,0-6.5-4.17,5.36,5.36,0,0,0-4.15-.45.63.63,0,0,1-.67-.2c-.95-1-2.18-1.76-3-2.87l-.24-.28-.17-.15-.16-.15a.6.6,0,0,1-.08-.08,1.85,1.85,0,0,1-.14-.14l-.07-.08a.61.61,0,0,1-.12-.16Z"/><path class="cls-1" d="M103.74,49.58a4.16,4.16,0,1,1-4.1-4.17A4.19,4.19,0,0,1,103.74,49.58Z"/><path class="cls-5" d="M139.25,42.45c.64.06.91.61,1.29,1a11.22,11.22,0,0,1,1.69,2.46,8.91,8.91,0,0,1,1.14,2.76c.18,1.17.72,2.23.8,3.44.05.76.11,1.52.13,2.28a21.1,21.1,0,0,1-.41,5.49c-.1.4-.27.62-.66.67h0c-.09-.13-.06-.32-.18-.44l-.06,0,0-.07c-.06-.17,0-.38-.21-.51h0c-.09-.13-.06-.32-.18-.44s-.07-.07,0-.13,0-.36-.19-.5a41.81,41.81,0,0,1-2.51-8.18,12.47,12.47,0,0,1-.44-3.1c-.23-.71.07-1.46-.18-2.17A7.89,7.89,0,0,1,139.25,42.45Z"/><path class="cls-6" d="M116.82,74.2c-.73-.2-.7-.21-.48-.75a8.37,8.37,0,0,0,1.07-4.06,8.19,8.19,0,0,1,.21-1.65,28,28,0,0,0-.28-4.58c-.08-.82-.24-1.63-.36-2.44h0c.2-.16.49-.21.59-.48v0c.14,0,.2-.08.25-.2v0a.63.63,0,0,0,.24-.19h0a1.56,1.56,0,0,1,.2-.16c0-.06.05-.09.12-.07a.37.37,0,0,0,.3-.21h0c.1,0,.16-.12.24-.17l0,0c.1-.13.31-.08.38-.25v0c.1,0,.16-.12.24-.18h0c.1-.13.3-.08.39-.24a.5.5,0,0,1,.4-.26c.61,1,.36,2.09.5,3.14s.1,2,.27,3a25.72,25.72,0,0,1-.34,7.17,13.41,13.41,0,0,0-.19,2.28Z"/><path class="cls-7" d="M58.31,73.79a.58.58,0,0,1,.6-.46,7.51,7.51,0,0,1,3.57.48c.62.31,1.11.82,1.76,1.1,1.57.66,2.8,1.88,4.3,2.67a1,1,0,0,1,.58.82h0c-.18.1-.13.32-.21.47a20.71,20.71,0,0,1-1.71,3.51c-1.51-1.56-3.51-2.45-5.19-3.78-.25-.2-.6-.15-.89-.25a1.24,1.24,0,0,1-.67-.75,21.16,21.16,0,0,0-1.9-3.09,2.72,2.72,0,0,1-.19-.47A1,1,0,0,1,58.31,73.79Z"/><path class="cls-8" d="M125.39,72.91a5.41,5.41,0,0,0-.19.69.89.89,0,0,1-1.09.8,2.92,2.92,0,0,1-1.24-.24c-.72-.19-.76-.75-.67-1.33a50.11,50.11,0,0,0,0-12.42,9.55,9.55,0,0,1,0-3.11,7.43,7.43,0,0,1,2.33-1,1.09,1.09,0,0,1,.31.86c.26,3.62.51,7.24.57,10.87C125.45,69.64,125.33,71.28,125.39,72.91Z"/><path class="cls-6" d="M141.42,109.92a.41.41,0,0,1-.22-.53,5.79,5.79,0,0,1,.37-.75,17,17,0,0,0,2.29-10.14c-.06-1.18-.4-2.33-.43-3.52,0,0,0-.06,0-.1,0-.77-1.05-1.19-.66-2.19.27-.69-.13-1.49-.27-2.24s-.34-1.56-.46-2.35A7.21,7.21,0,0,1,142,87c.42,0,.53.43.88.38h0c0,.15.08.22.22.24l0,0a.23.23,0,0,0,.23.23l0,0a.21.21,0,0,0,.23.22l-.05,0,.05,0c0,.1.09.2.13.29-.16,3.5,1.2,6.77,1.52,10.21a8.07,8.07,0,0,0,1.42,3,7.84,7.84,0,0,1,.68,1.05,60.87,60.87,0,0,1-3.9,6.24,1.23,1.23,0,0,1-.52.49,1.37,1.37,0,0,0-.23.19h0c-.11.12-.3.08-.41.2h0c-.17.18-.45,0-.62.2l-.07.06Z"/><path class="cls-9" d="M122.21,57.3a6.29,6.29,0,0,1,.25,1.84,39.47,39.47,0,0,0,.39,4.86,3,3,0,0,1,0,.42c0,1.55.06,3.11,0,4.66a16.26,16.26,0,0,1-.36,3.67,1.18,1.18,0,0,0,.38,1.41,17.88,17.88,0,0,1-2.31-.22.88.88,0,0,1-.37-1.09c.38-1.45.37-2.95.61-4.4a16.94,16.94,0,0,0-.22-5.13,1.62,1.62,0,0,1,0-.31c.11-1.57-.31-3.11-.24-4.67A7,7,0,0,1,122.21,57.3Z"/><path class="cls-10" d="M87.34,124.79a1.77,1.77,0,0,1-2,.5,2.06,2.06,0,0,1-1.14-1.88,3,3,0,0,1,.26-1.64,1.69,1.69,0,0,1,1.47-1c2.08-.16,2.08-.17,2.08,1.94a12,12,0,0,0,0,1.47,1.65,1.65,0,0,0,2.53,1,.94.94,0,0,0,.35-.83c0-.63,0-1.26,0-1.89,0-.3-.22-.82.36-.79s.29.54.3.83c0,.77,0,1.54,0,2.31,0,.42.1.57.51.55s.9,0,1.33,0c.14-.53,0-1,.19-1.43a2,2,0,0,1,2-1.45,1.92,1.92,0,0,1,1.8,1.75c.05.34-.14.78.1,1s.8.11,1.21.12a2.87,2.87,0,0,0,1.16-.07,4,4,0,0,1-.21-2,2,2,0,0,1,2-1.59,1.91,1.91,0,0,1,1.82,1.82,2.09,2.09,0,0,1-2.22,2.6c-1.15-.09-2.31,0-3.47,0a1.46,1.46,0,0,0-1.13.37,1.84,1.84,0,0,1-2.57,0,1.5,1.5,0,0,0-1.14-.37c-1.19,0-2.38,0-3.57,0A1.93,1.93,0,0,1,87.34,124.79Z"/><path class="cls-11" d="M147.27,102.54c-.76-.29-1-1-1.34-1.64-.23-.38-.4-.8-.62-1.2a3.16,3.16,0,0,1-.5-1.87,7.38,7.38,0,0,0-.41-2.34,29.68,29.68,0,0,0-1-4.67.91.91,0,0,1-.08-.7,5.38,5.38,0,0,0,.16-1.87c.27-.13.42.1.6.21l2,1.44a8.57,8.57,0,0,0,.22,4.15,28.24,28.24,0,0,0,1.19,4.13,17.55,17.55,0,0,1,.69,2.95A4.53,4.53,0,0,1,147.27,102.54Z"/><path class="cls-12" d="M125.39,72.91c-.08-.06-.24-.12-.24-.18,0-1.34-.44-2.67,0-4a1.63,1.63,0,0,0,0-.82c-.37-1.51,0-3.06-.23-4.55s0-3-.34-4.46a13.22,13.22,0,0,1-.06-2.6,4.91,4.91,0,0,1,1.9-.63c.19,1.8.15,3.62.31,5.42.2,2.19.2,4.39.32,6.58l-1,3.15c-.13.11-.08.31-.21.42v.42c-.08.07-.13.15-.21.21v.42c-.13.11-.08.31-.21.42Z"/><path class="cls-13" d="M127.07,67.66a1.24,1.24,0,0,1-.42-1c0-.38,0-.77,0-1.15.08-1.84-.23-3.66-.27-5.5,0-1.06-.13-2.14-.16-3.21a2.27,2.27,0,0,1,.21-1.12,4.67,4.67,0,0,1,1.88-.44,2.58,2.58,0,0,1,.24,1.72c0,2.24.33,4.48.19,6.73l-1.47,3.57c-.08.06-.13.15-.2.21S127.07,67.59,127.07,67.66Z"/><path class="cls-14" d="M61.05,78.18a2,2,0,0,1,1.59.53c1.11.87,2.34,1.58,3.49,2.4.45.32,1.11.51,1.07,1.26a7.86,7.86,0,0,1-1.06,2.08c-1.33-.43-2.34-1.45-3.66-2-.16,1,.08,1.86-.16,2.73a.47.47,0,0,1-.23.23.31.31,0,0,1-.28-.18,3.26,3.26,0,0,1-.15-1.55,17.69,17.69,0,0,0-.39-3.84,4.53,4.53,0,0,0,0-.74c0-.09,0-.17-.07-.26s-.1-.24-.14-.37A.43.43,0,0,1,61.05,78.18Z"/><path class="cls-15" d="M120.51,122.49l1.3-2.4c.19-.34.48-.35.85-.2-.13.65-.67,1.12-.84,1.76.24.27.54.14.79.16a2.91,2.91,0,0,1,3,3c.05,1.57.1,1.26-1.16,1.27-1.78,0-3.56,0-5.35,0-1.16,0-1.63-.42-1.66-1.53,0-1.4,0-2.8,0-4.2,0-.23-.06-.52.32-.54s.43.25.43.55c0,1.19,0,2.38,0,3.57s.15,1.46,1.43,1.47H124c.77,0,.82-.07.74-.84a2.12,2.12,0,0,0-2.13-2C122,122.47,121.32,122.49,120.51,122.49Z"/><path class="cls-15" d="M111.88,124.89c-.07,0-.11,0-.13,0-1.28,1.11-2.87.39-3-1.54a2.93,2.93,0,0,1,.33-1.72,1.65,1.65,0,0,1,1.33-.89c2.18-.22,2.18-.23,2.18,2,0,.52,0,1,0,1.56a1.06,1.06,0,0,0,.86,1.06,1.94,1.94,0,0,0,1.71-.2,1.32,1.32,0,0,0,.29-1.08c0-1,0-2.09,0-3.14,0-.21,0-.42,0-.63s0-.52.37-.49.32.31.32.54c0,1.43,0,2.87,0,4.3,0,1-.5,1.4-1.54,1.43-.21,0-.42,0-.63,0A1.86,1.86,0,0,1,111.88,124.89Z"/><path class="cls-16" d="M128.75,63.67c-.45-.69-.13-1.48-.28-2.22-.33-1.58,0-3.22-.25-4.82a5.65,5.65,0,0,1,.1-1.41,12.12,12.12,0,0,1,5.12-.2c-.38.43-.89.33-1.37.34-1.53,0-1.51,0-1.54,1.61,0,1,.08,2.08.11,3.12Z"/><path class="cls-12" d="M148.13,101.13a.53.53,0,0,1-.46-.6,7.9,7.9,0,0,0-.75-3,35.1,35.1,0,0,1-1.32-5.42,11.3,11.3,0,0,1,0-1.65.5.5,0,0,1,.47-.57,6,6,0,0,1,1.27.63,3.47,3.47,0,0,0,0,2.16,31.51,31.51,0,0,0,1.84,6.73,2.38,2.38,0,0,1-.62,1c-.17.08-.13.29-.25.41h0c-.08.07-.19.13-.17.26Z"/><path class="cls-17" d="M151.64,90.94a12,12,0,0,1,.44,3.62,10.13,10.13,0,0,1-1.25,2.1c-.44.48-.7.13-.84-.25a17.06,17.06,0,0,1-1.06-4.58c0-.51.17-.76.73-.75a7,7,0,0,0,1.77-.06Z"/><path class="cls-18" d="M130.64,60.09a1.86,1.86,0,0,1-.41-1.15c0-1.08,0-2.16,0-3.24,0-.51.25-.65.71-.65.84,0,1.67,0,2.51,0a3.37,3.37,0,0,1,1.6.27,14.42,14.42,0,0,0-4,4.18,2,2,0,0,0-.2.21c0,.07,0,.14,0,.21a1.89,1.89,0,0,1-.2.2Z"/><path class="cls-19" d="M62.16,85.1v-3a3.14,3.14,0,0,1,1.54.64,7.91,7.91,0,0,0,1.77,1.06,1.12,1.12,0,0,1,.67.63,10.89,10.89,0,0,1-1.25,2.33A10.1,10.1,0,0,1,62.16,85.1Z"/><path class="cls-20" d="M61.52,87.82l0-.22c.07-.19.07-.42.3-.52.79-.33,2.06.69,2,1.57v0a.59.59,0,0,0-.18.28,23.24,23.24,0,0,1-2.34,3.72.72.72,0,0,0-.18.24l-.1.18a.28.28,0,0,1-.14.18v0l-.18.23h0a.35.35,0,0,0-.2.28.09.09,0,0,1-.07.12c-.27-.28-.12-.57,0-.88.36-1.58.72-3.17.94-4.78C61.45,88.13,61.4,87.94,61.52,87.82Z"/><path class="cls-21" d="M151.43,91c-.54.34-1.15.13-1.73.17s-.58.23-.53.67a43.66,43.66,0,0,0,1,4.53c.08.39.33.4.63.27a5.17,5.17,0,0,1-.88,1.46c0,.09-.16.14-.16.25h0c-.41,0-.59-.26-.68-.54A18.61,18.61,0,0,1,147.59,92c0-1,.14-1.13,1.14-1A22.12,22.12,0,0,0,151.43,91Z"/><path class="cls-22" d="M129.42,125.74c-2,.5-3.23-.73-2.76-2.66a1.78,1.78,0,0,1,1.6-1.43,1.62,1.62,0,0,1,1.75,1.21,6.34,6.34,0,0,1,0,3.71,1.47,1.47,0,0,1-1.24,1c-.19,0-.43.17-.54-.1a.36.36,0,0,1,.31-.54A1.13,1.13,0,0,0,129.42,125.74Z"/><path class="cls-23" d="M148.73,91c-.83.11-.83.11-.86.81a11.47,11.47,0,0,0,.77,3.84c.17.56.4,1.1.54,1.68a1.9,1.9,0,0,0,.62,1.07.44.44,0,0,1-.24.39c-.13.09-.09.29-.23.39v0c0,.08-.15.14-.16.25h0c-.26.09-.46,0-.54-.26-.5-1.84-1-3.66-1.49-5.5-.2-.8-.1-1.65-.3-2.46a.5.5,0,0,1,.47-.67.12.12,0,0,1,.16,0c.13.11.31.08.45.17A1.32,1.32,0,0,1,148.73,91Z"/><path class="cls-24" d="M92,36.38a45.81,45.81,0,0,0-10.41-4.51c-1.27-.36-2.56-.67-3.83-1,0-.42.3-.22.5-.21a36.72,36.72,0,0,1,7.7,2.23,30,30,0,0,1,6.28,3.28C92.23,36.35,92.19,36.47,92,36.38Z"/><path class="cls-25" d="M63.83,88.65c0-.36,0-.7-.45-.8a1.54,1.54,0,0,1-.69-.42c-.44-.4-.8-.24-1.12.17l0-.13a2.13,2.13,0,0,1,.22-1.87c.1-.15.27-.2.4-.29V85.1a23.78,23.78,0,0,1,2.64,1.4c.06,0,.06.18.09.28h0c-.13.1-.07.3-.21.4A4.71,4.71,0,0,1,63.83,88.65Z"/><path class="cls-26" d="M106.28,124c0,.66,0,1.33,0,2a1.69,1.69,0,0,1-1.47,1.65c-.17,0-.35.12-.44-.11s0-.47.18-.52c1.07-.22,1.09-1,1.09-1.85v-2.93c0-.24,0-.52.34-.52s.34.28.34.51c0,.6,0,1.19,0,1.78Z"/><path class="cls-27" d="M68.43,29.66c.2-.1.47,0,.65-.2h.43c.51.19,1.06,0,1.57.15l1,.06a.16.16,0,0,1-.06.26,1.26,1.26,0,0,1-.64-.05A12.81,12.81,0,0,1,68.43,29.66Z"/><path class="cls-28" d="M72,29.84v-.17a9.79,9.79,0,0,1,2.58.35c-.09.21-.33.09-.46.21a6.26,6.26,0,0,1-1.49-.18C72.49,29.86,72.19,30.05,72,29.84Z"/><path class="cls-29" d="M111.77,119.16c.33,0,.38.25.38.52s-.15.46-.45.44-.38-.24-.38-.51S111.47,119.15,111.77,119.16Z"/><path class="cls-30" d="M110.49,119.18c.32,0,.4.18.41.46s-.08.47-.39.47-.42-.18-.41-.46S110.19,119.19,110.49,119.18Z"/><path class="cls-31" d="M101.42,120.56c0,.28-.07.47-.4.47s-.39-.2-.39-.48.09-.39.35-.4S101.44,120.24,101.42,120.56Z"/><path class="cls-31" d="M102.66,120.59c0,.36-.18.46-.46.43s-.32-.29-.32-.53.17-.35.41-.34S102.69,120.35,102.66,120.59Z"/><path class="cls-32" d="M87.19,119.18c.36,0,.41.21.41.48s-.09.47-.4.45-.33-.2-.34-.43S86.89,119.2,87.19,119.18Z"/><path class="cls-33" d="M85.88,119.19c.31,0,.45.09.47.34s0,.57-.37.58-.35-.16-.35-.39S85.61,119.23,85.88,119.19Z"/><path class="cls-34" d="M78.22,30.65c-.18,0-.38,0-.5.21A6.35,6.35,0,0,1,76,30.5c.16-.24.46,0,.65-.19A4.76,4.76,0,0,1,78.22,30.65Z"/><path class="cls-35" d="M76.64,30.31c-.17.21-.43.14-.65.19a1.92,1.92,0,0,1-1.08-.19c0-.14.17-.16.27-.22A4.78,4.78,0,0,1,76.64,30.31Z"/><path class="cls-10" d="M91.28,126.72c.3,0,.33.18.34.4s0,.41-.3.43-.4-.17-.38-.45S91,126.7,91.28,126.72Z"/><path class="cls-36" d="M90.37,127c0,.37,0,.55-.31.55s-.38-.08-.37-.35,0-.49.37-.48A.29.29,0,0,1,90.37,127Z"/><path class="cls-1" d="M138.14,110.12h2.27A3.46,3.46,0,0,1,138.14,110.12Z"/><path class="cls-37" d="M98.29,41.4a2,2,0,0,1,1.06,1.26h0a2.06,2.06,0,0,1-1-1.26Z"/><path class="cls-1" d="M139.27,45c.42.7.12,1.45.18,2.17A5.3,5.3,0,0,1,139.27,45Z"/><path class="cls-38" d="M92,36.38l.24-.22a2,2,0,0,1,.87.6c0,.13-.14.15-.23.2A2.26,2.26,0,0,1,92,36.38Z"/><path class="cls-39" d="M99.56,42.87a1.41,1.41,0,0,1,.84,1.05h0a1.48,1.48,0,0,1-.84-1Z"/><path class="cls-40" d="M95.34,38.49a1.85,1.85,0,0,1,.86.8.11.11,0,0,1,0,.12s0,.06,0,.06a1.89,1.89,0,0,1-.85-.73A.2.2,0,0,1,95.34,38.49Z"/><path class="cls-41" d="M100.61,44.13a1.35,1.35,0,0,1,.73.91c-.35-.21-.7-.41-.74-.9Z"/><path class="cls-42" d="M94.94,38.44a2.46,2.46,0,0,1-.85-.61l0-.09a.56.56,0,0,0,.17-.09,1.14,1.14,0,0,1,.65.55.19.19,0,0,1,0,.16S95,38.44,94.94,38.44Z"/><path class="cls-43" d="M94.09,37.83a2.91,2.91,0,0,1-.85-.62.31.31,0,0,1,.21-.19,1.38,1.38,0,0,1,.65.49.25.25,0,0,1,0,.24Z"/><path class="cls-44" d="M71.08,29.61c-.52,0-1.07.18-1.57-.15A3.49,3.49,0,0,1,71.08,29.61Z"/><path class="cls-45" d="M72,29.84c.22,0,.47,0,.63.21a3,3,0,0,1-1.33-.17Z"/><path class="cls-46" d="M57.35,37.88c-.05-.18-.05-.39-.26-.48l.25-.39c.21-.08.28,0,.23.21S57.55,37.7,57.35,37.88Z"/><path class="cls-47" d="M75.18,30.09l-.27.22-.76-.08.46-.21Z"/><path class="cls-3" d="M144.06,88.46l-.6-.21.06-.27A1,1,0,0,1,144.06,88.46Z"/><path class="cls-2" d="M117.57,60.24c0,.36-.27.48-.59.48A1,1,0,0,1,117.57,60.24Z"/><path class="cls-48" d="M93.45,37l-.21.19-.4-.25.23-.2Z"/><path class="cls-3" d="M141.57,109.88c.15-.24.39-.2.62-.2A.68.68,0,0,1,141.57,109.88Z"/><path class="cls-1" d="M137.13,109.9c.23,0,.48-.06.65.17A.7.7,0,0,1,137.13,109.9Z"/><path class="cls-49" d="M57.57,37.22,57.34,37c0-.14.17-.26.28-.19S57.68,37.09,57.57,37.22Z"/><path class="cls-3" d="M142.2,109.67a.42.42,0,0,1,.41-.2A.38.38,0,0,1,142.2,109.67Z"/><path class="cls-1" d="M136.49,109.69a.45.45,0,0,1,.45.17A.44.44,0,0,1,136.49,109.69Z"/><path class="cls-1" d="M139.5,82.77a.37.37,0,0,1-.24-.41A.44.44,0,0,1,139.5,82.77Z"/><path class="cls-1" d="M139.75,83.17c-.24,0-.27-.22-.26-.41A.48.48,0,0,1,139.75,83.17Z"/><path class="cls-19" d="M64.68,87.18a.39.39,0,0,1,.21-.4A.43.43,0,0,1,64.68,87.18Z"/><path class="cls-1" d="M142.8,59.48c.23.11.23.31.21.51A.59.59,0,0,1,142.8,59.48Z"/><path class="cls-1" d="M143.05,60.1a.4.4,0,0,1,.18.44A.4.4,0,0,1,143.05,60.1Z"/><path class="cls-12" d="M147.91,90.75a.42.42,0,0,1-.45-.17A.46.46,0,0,1,147.91,90.75Z"/><path class="cls-1" d="M142.63,59.05a.4.4,0,0,1,.18.44A.44.44,0,0,1,142.63,59.05Z"/><path class="cls-2" d="M119.28,59c0,.19-.2.24-.38.25A.43.43,0,0,1,119.28,59Z"/><path class="cls-1" d="M142.4,58.42a.45.45,0,0,1,.19.5A.52.52,0,0,1,142.4,58.42Z"/><path class="cls-4" d="M68.91,78.86c0-.2,0-.38.21-.47A.54.54,0,0,1,68.91,78.86Z"/><path class="cls-2" d="M119.92,58.6a.38.38,0,0,1-.39.24A.45.45,0,0,1,119.92,58.6Z"/><path class="cls-11" d="M148.29,100.86c0-.19.05-.35.25-.41A.46.46,0,0,1,148.29,100.86Z"/><path class="cls-1" d="M139.26,82.36A.41.41,0,0,1,139,82,.44.44,0,0,1,139.26,82.36Z"/><path class="cls-12" d="M149.33,99.15a.4.4,0,0,1,.23-.39A.43.43,0,0,1,149.33,99.15Z"/><path class="cls-2" d="M117.81,60.06a.25.25,0,0,1-.25.2A.27.27,0,0,1,117.81,60.06Z"/><path class="cls-25" d="M63.65,89a.33.33,0,0,1,.18-.28A.28.28,0,0,1,63.65,89Z"/><path class="cls-1" d="M61.13,92.91a.27.27,0,0,1,.18-.24A.24.24,0,0,1,61.13,92.91Z"/><path class="cls-1" d="M60.89,93.27l.14-.18C61,93.19,61,93.24,60.89,93.27Z"/><path class="cls-1" d="M60.7,93.52a.25.25,0,0,1,.18-.23A.22.22,0,0,1,60.7,93.52Z"/><path class="cls-50" d="M94.13,37.75l0-.24.19.14C94.26,37.71,94.22,37.78,94.13,37.75Z"/><path class="cls-51" d="M94.94,38.44V38.2c.12,0,.22.1.2.26h0Z"/><path class="cls-23" d="M149.79,98.37l.16-.25A.22.22,0,0,1,149.79,98.37Z"/><path class="cls-52" d="M95.34,38.49v.24c-.12,0-.24-.1-.21-.27h0Z"/><path class="cls-12" d="M149.16,99.42l.16-.25A.22.22,0,0,1,149.16,99.42Z"/><path class="cls-53" d="M96.2,39.47v-.18a.2.2,0,0,1,.19.22h0Z"/><path class="cls-54" d="M96.39,39.51q.21,0,.21.21h0c-.14,0-.22-.06-.21-.21Z"/><path class="cls-11" d="M148.13,101.12a.26.26,0,0,1,.17-.26A.24.24,0,0,1,148.13,101.12Z"/><path class="cls-3" d="M142.62,109.46l.23-.19A.23.23,0,0,1,142.62,109.46Z"/><path class="cls-1" d="M136,109.5a.35.35,0,0,1,.3.14A.26.26,0,0,1,136,109.5Z"/><path class="cls-55" d="M96.82,39.92a.19.19,0,0,1-.2-.21h0a.21.21,0,0,1,.21.21Z"/><path class="cls-56" d="M96.81,39.93l.1.09s0,0-.06,0l0-.08Z"/><path class="cls-57" d="M97.67,40.77l-.1-.09h.06a.32.32,0,0,1,0,.09Z"/><path class="cls-58" d="M97.66,40.78a.23.23,0,0,1,.21.21h0a.23.23,0,0,1-.21-.21Z"/><path class="cls-1" d="M105,80.72a.29.29,0,0,1,.24-.22A.28.28,0,0,1,105,80.72Z"/><path class="cls-59" d="M97.87,41a.21.21,0,0,1,.21.21h0a.21.21,0,0,1-.21-.21Z"/><path class="cls-2" d="M118.66,59.44a.34.34,0,0,1-.3.21A.34.34,0,0,1,118.66,59.44Z"/><path class="cls-1" d="M139,82a.29.29,0,0,1-.16-.27A.25.25,0,0,1,139,82Z"/><path class="cls-60" d="M98.29,41.4a.19.19,0,0,1-.2-.21h0a.19.19,0,0,1,.21.2Z"/><path class="cls-61" d="M99.35,42.66a.2.2,0,0,1,.21.21h0a.21.21,0,0,1-.21-.22Z"/><path class="cls-62" d="M100.4,43.92a.22.22,0,0,1,.21.21h0a.23.23,0,0,1-.21-.22Z"/><path class="cls-2" d="M119.51,58.85l-.24.18A.22.22,0,0,1,119.51,58.85Z"/><path class="cls-1" d="M139.9,83.41a.25.25,0,0,1-.17-.27A.28.28,0,0,1,139.9,83.41Z"/><path class="cls-2" d="M118.88,59.28l-.24.17A.23.23,0,0,1,118.88,59.28Z"/><path class="cls-2" d="M118.24,59.72l-.2.16C118.07,59.78,118.12,59.71,118.24,59.72Z"/><path class="cls-3" d="M143.1,87.58a.23.23,0,0,1-.22-.24A.29.29,0,0,1,143.1,87.58Z"/><path class="cls-3" d="M143.31,87.79a.24.24,0,0,1-.23-.23A.28.28,0,0,1,143.31,87.79Z"/><path class="cls-2" d="M118,59.89a.33.33,0,0,1-.24.19A.23.23,0,0,1,118,59.89Z"/><path class="cls-3" d="M143.52,88a.22.22,0,0,1-.23-.22A.28.28,0,0,1,143.52,88Z"/><path class="cls-1" d="M60.51,93.79a.29.29,0,0,1,.2-.28A.3.3,0,0,1,60.51,93.79Z"/><path class="cls-25" d="M61.52,87.82a.44.44,0,0,1-.19.43A.43.43,0,0,1,61.52,87.82Z"/><path class="cls-8" d="M125.81,71.23a.44.44,0,0,1,.21-.42A.42.42,0,0,1,125.81,71.23Z"/><path class="cls-8" d="M125.39,72.7a.44.44,0,0,1,.21-.42A.42.42,0,0,1,125.39,72.7Z"/><path class="cls-12" d="M127.08,67.45l.2-.21Z"/><path class="cls-8" d="M125.6,71.86l.21-.21Z"/><path class="cls-16" d="M130.86,59.68l.2-.21Z"/><path class="cls-16" d="M130.64,60.09l.2-.2Z"/><path class="cls-1" d="M54.78,70.48a.58.58,0,0,1-.36-.31C54.61,70.2,54.75,70.27,54.78,70.48Z"/><path class="cls-1" d="M54,69.77a.24.24,0,0,1-.22-.21Z"/><path class="cls-1" d="M54.18,70a.23.23,0,0,1-.22-.19Z"/><path class="cls-1" d="M54.39,70.15a.19.19,0,0,1-.2-.18Z"/><path class="cls-4" d="M58.6,74.14a.44.44,0,0,1-.28-.34C58.52,73.82,58.58,74,58.6,74.14Z"/><path class="cls-63" d="M87.31,122.54a4,4,0,0,1-.19,1.54,1,1,0,0,1-.91.75,1,1,0,0,1-1-.57,2.33,2.33,0,0,1,0-2.3,1.67,1.67,0,0,1,1.92-.67.37.37,0,0,1,.24.41C87.31,122,87.31,122.26,87.31,122.54Z"/><path class="cls-64" d="M102.88,123.7c0,1.13-.41,1.74-1.18,1.77a1.05,1.05,0,0,1-1.09-.65,2.1,2.1,0,0,1-.07-1.63,1.14,1.14,0,0,1,1.23-.91c.55,0,.88.36,1,1A2.46,2.46,0,0,1,102.88,123.7Z"/><path class="cls-64" d="M94.31,124.73a1.92,1.92,0,0,1,.2-.91,1.14,1.14,0,0,1,1.18-.67,1.09,1.09,0,0,1,.91.89,2.91,2.91,0,0,1,0,1.14c-.1.69-.46,1.06-1,1.1a1.15,1.15,0,0,1-1.23-1A3.05,3.05,0,0,1,94.31,124.73Z"/><path class="cls-7" d="M61.51,79.48a.89.89,0,0,1-.22-.68C61.58,79,61.52,79.22,61.51,79.48Z"/><path class="cls-7" d="M61.3,78.82a.43.43,0,0,1-.17-.44A.41.41,0,0,1,61.3,78.82Z"/><path class="cls-19" d="M62,85.52v-.21h.19Z"/><path class="cls-65" d="M111.82,122.61a9.81,9.81,0,0,1-.15,1.34,1,1,0,0,1-.91.88,1.08,1.08,0,0,1-1.14-.72,2.47,2.47,0,0,1-.11-1.83,1.57,1.57,0,0,1,2-1,.35.35,0,0,1,.25.39c0,.31,0,.62,0,.93Z"/><path class="cls-66" d="M127.28,123.85c0-.93.43-1.53,1-1.57s1.17.59,1.2,1.44a2.13,2.13,0,0,1-.08.61,1,1,0,0,1-1,.93,1.11,1.11,0,0,1-1.12-.9A2.26,2.26,0,0,1,127.28,123.85Z"/></g></g></svg>