<svg xmlns="http://www.w3.org/2000/svg" viewBox="0 0 194.92 79.38"><defs><style>.cls-1{fill:#501b54;}.cls-2{fill:#501c54;}.cls-3{fill:#501c55;}.cls-4{fill:#4c1a51;}.cls-5{fill:#4d1a52;}.cls-6{fill:#4a184e;}.cls-7{fill:#451448;}.cls-8{fill:#4e1c52;}.cls-9{fill:#511d55;}.cls-10{fill:#521e56;}.cls-11{fill:#401043;}.cls-12{fill:#47164b;}.cls-13{fill:#521e55;}.cls-14{fill:#521f56;}.cls-15{fill:#531f56;}.cls-16{fill:#562559;}.cls-17{fill:#542258;}.cls-18{fill:#361238;}.cls-19{fill:#2c112e;}.cls-20{fill:#562459;}.cls-21{fill:#70456d;}.cls-22{fill:#572559;}.cls-23{fill:#552458;}.cls-24{fill:#a46c86;}.cls-25{fill:#64305f;}.cls-26{fill:#7f7191;}.cls-27{fill:#c6b6c4;}.cls-28{fill:#6a3562;}.cls-29{fill:#783964;}.cls-30{fill:#6a2d5d;}.cls-31{fill:#6f5b7f;}.cls-32{fill:#723763;}.cls-33{fill:#c5b5c3;}.cls-34{fill:#bba6b8;}.cls-35{fill:#634b73;}.cls-36{fill:#7d5a7c;}.cls-37{fill:#9a7b96;}.cls-38{fill:#662b5c;}.cls-39{fill:#754970;}.cls-40{fill:#836080;}.cls-41{fill:#8c6b89;}.cls-42{fill:#3a103c;}.cls-43{fill:#6b2b5c;}.cls-44{fill:#672a5c;}.cls-45{fill:#b197ab;}.cls-46{fill:#753c66;}.cls-47{fill:#895577;}.cls-48{fill:#693160;}.cls-49{fill:#84597b;}.cls-50{fill:#8a6d8b;}.cls-51{fill:#fefdfe;}.cls-52{fill:#fcfcfc;}.cls-53{fill:#fefefe;}.cls-54{fill:#fdfdfe;}.cls-55{fill:#fdfdfd;}.cls-56{fill:#fcfbfc;}.cls-57{fill:#f2f0f3;}.cls-58{fill:#fbfafc;}.cls-59{fill:#e0dae1;}</style></defs><title>Asset 3</title><g id="Layer_2" data-name="Layer 2"><g id="Layer_2-2" data-name="Layer 2"><path class="cls-1" d="M73.5,43.42c-3.69,3.72-6.59,8.06-9.57,12.33A68.45,68.45,0,0,1,48.07,72.11,40.82,40.82,0,0,1,36.55,78a28.19,28.19,0,0,1-18.62-.48A27,27,0,0,1,5.06,68.35,24.76,24.76,0,0,1,.39,57,37.75,37.75,0,0,1,1.84,40.23a49.4,49.4,0,0,1,9.62-18,41.8,41.8,0,0,1,20.26-13,43.31,43.31,0,0,1,8.2-1.71h.52c.26,0,.59-.28.7.2a45,45,0,0,0-10.72,2.77A34.33,34.33,0,0,0,11.2,28.92,27.13,27.13,0,0,0,8.83,41.28c.41,8,3.46,14.78,9.92,19.76a23.38,23.38,0,0,0,12,4.65c8.62,1,16.4-1.35,23.56-6A61.48,61.48,0,0,0,67.74,47.1c1.42-1.73,2.78-3.51,4.09-5.32a2.78,2.78,0,0,1,.59-.73C72.88,41.8,72.79,42.79,73.5,43.42Z"/><path class="cls-1" d="M97.83,19.54A15.56,15.56,0,0,1,97.75,15a15.86,15.86,0,0,1,2.42-7A55.9,55.9,0,0,1,105.42.35c.43,0,.3.25.26.48-.87,5.42.55,10.47,2.57,15.41,1.32,3.23,2.81,6.39,4,9.68a28.29,28.29,0,0,1,2,10.33,16.23,16.23,0,0,1-2,7.84c-1.49,2.61-3,5.18-4.62,7.74a14.77,14.77,0,0,1-1.18,1.46c-.47-.87-.2-1.9-.62-2.77.53-.09.6-.44.61-.91a25.84,25.84,0,0,0-1.33-8.85c-1-3.27-2.47-6.37-3.79-9.52a21.76,21.76,0,0,1-1.21-3.11c.41-.11.76-.23.79-.77.2-3.5,0-6.9-2.1-9.91-.1-.14-.19-.28-.31-.42a.44.44,0,0,0-.28-.17C97.92,17.72,98.48,18.73,97.83,19.54Z"/><path class="cls-1" d="M95.34,63.39a7.59,7.59,0,0,1-3.06-2.31A22,22,0,0,1,88,53.55,24.38,24.38,0,0,1,87.27,40c.08-.38.42-.78,0-1.18a9.91,9.91,0,0,1,.44-1.94c0-.09.06-.18.1-.27L88,36.2a34.49,34.49,0,0,1,1.83-4.81c.44-.82.83-1.66,1.26-2.48.1-.16.2-.32.32-.48l.23-.35a6.54,6.54,0,0,1,2.86-2.72c.46-.06.41.22.35.52a25.13,25.13,0,0,0-.4,3,26.34,26.34,0,0,0,2.84,14.66c.08.15.12.32.19.48a1.37,1.37,0,0,0-.25.78,51.06,51.06,0,0,0,.71,7.39,15.77,15.77,0,0,1,.1,7.07A7.38,7.38,0,0,1,95.34,63.39Z"/><path class="cls-2" d="M124.62,34.58V39.7c0,1.78,0,3.56,0,5.35,0,.46-.09.7-.63.68-2-.06-1.57.24-1.58-1.51,0-4.65,0-9.3,0-14V29a33.1,33.1,0,0,1,2.45,2.41c.76.76,1.51,1.55,2.27,2.33l2.34,2.41c.75.77,1.5,1.56,2.27,2.32s1.62,1.53,2.46,2.33c.19-.21.09-.54.09-.82q0-4.73,0-9.45c0-1.17.07-1,.94-1,1.5,0,1.29-.21,1.29,1.25q0,7.2,0,14.38v1.27l-11.71-12Z"/><path class="cls-1" d="M161.82,36.8a17.59,17.59,0,0,1,1.63.86,3.94,3.94,0,0,1,.19,6.63,8.06,8.06,0,0,1-4.53,1.41c-.8,0-1.61,0-2.42,0s-.92,0-.93-.89c0-.67,0-1.33,0-2,0-3.7,0-7.41,0-11.12,0-.68-.32-1.57.16-2s1.34-.1,2-.13a8.39,8.39,0,0,1,2.39.21,5.79,5.79,0,0,1,2.44,1.15,3.18,3.18,0,0,1,.39,4.73A7.13,7.13,0,0,1,161.82,36.8Z"/><path class="cls-3" d="M173.83,38.88l4.63,6.84c-.87,0-1.55,0-2.23,0-.4,0-.52-.29-.69-.54-1.2-1.77-2.38-3.54-3.59-5.3-.2-.3-.34-.86-.76-.74s-.21.66-.21,1c0,1.61,0,3.22,0,4.83,0,.72,0,.74-.76.74-1.79,0-1.48.24-1.48-1.49,0-4.47,0-8.95,0-13.42,0-.25,0-.49,0-.74s.11-.52.48-.5a26.84,26.84,0,0,1,4.91.2,5.8,5.8,0,0,1,2.11.89,4.3,4.3,0,0,1-.28,7.34C175.29,38.38,174.57,38.54,173.83,38.88Z"/><path class="cls-2" d="M179.79,45.72l7.57-16.8,7.56,16.63c-.12.08-.16.15-.21.15-.67,0-1.42.23-2-.07s-.62-1.13-.92-1.72a15.81,15.81,0,0,1-.72-1.63,1,1,0,0,0-1.09-.73c-1.78.05-3.57,0-5.35,0a.92.92,0,0,0-1,.68c-.39,1-.87,1.9-1.26,2.87a.82.82,0,0,1-.94.62C181,45.69,180.44,45.72,179.79,45.72Z"/><path class="cls-2" d="M153.45,45.69a6.71,6.71,0,0,1-2.18,0c-.6-.25-.64-1.1-.93-1.68a17.3,17.3,0,0,1-.82-1.81.86.86,0,0,0-1-.6q-2.73,0-5.46,0a.87.87,0,0,0-.94.62c-.41,1-.89,2-1.31,3a.76.76,0,0,1-.86.58c-.51,0-1,0-1.73,0l7.57-16.8Z"/><path class="cls-4" d="M95.34,63.39c0-.4.29-.62.54-.86a7.5,7.5,0,0,0,2.18-5.36,27.93,27.93,0,0,0-.67-6.5A19.92,19.92,0,0,1,97,47.59a11.83,11.83,0,0,0-.15-2.91c-.09-.35,0-.82.61-.66h0c.09.14,0,.36.25.43l0,0c0,.13.09.19.16.27h0c.13.1.09.31.25.4a34.84,34.84,0,0,0,2.69,3.37,14.07,14.07,0,0,0,1,7.64,4.76,4.76,0,0,1,.21,2.84,2.93,2.93,0,0,0-.1,1.94,10.49,10.49,0,0,1-1.33,2.1,2.06,2.06,0,0,1-1.19.78A5.08,5.08,0,0,1,95.34,63.39Z"/><path class="cls-5" d="M73.5,43.42c-.85-.12-.89-.84-1-1.45a4.66,4.66,0,0,1,0-.92,64.48,64.48,0,0,1,8-10.43,10.44,10.44,0,0,1,2.06-1.75c-.39,1.79,0,3.57,0,5.36a7.21,7.21,0,0,1-1.48,4.61A20.2,20.2,0,0,0,73.5,43.42Z"/><path class="cls-6" d="M81.08,38.84c0-.77.5-1.34.77-2a7.49,7.49,0,0,0,.33-3.15,5.25,5.25,0,0,1-.07-1,5.06,5.06,0,0,0,0-1.46,2.21,2.21,0,0,1,.44-2.31A8.52,8.52,0,0,1,85,27.21c.59,1.27.28,2.67.52,4A18.11,18.11,0,0,1,85.42,37a5.38,5.38,0,0,0,.26,1.52l-3.51,0c-.28.17-.63,0-.9.18l-.08.06Z"/><path class="cls-7" d="M85.68,38.56c-.72-.22-.74-.81-.59-1.34a18.19,18.19,0,0,0,.33-3.2,17.77,17.77,0,0,0-.27-3.62A24.25,24.25,0,0,1,85,27.21h0c.16-.07.37,0,.43-.25a7.14,7.14,0,0,1,2.33-1,77.06,77.06,0,0,0,.3,8A24.64,24.64,0,0,0,88,36.7a4.52,4.52,0,0,1-.67,2.13A5.37,5.37,0,0,1,85.68,38.56Z"/><path class="cls-3" d="M69.92,24.29a2.92,2.92,0,1,1,0-5.84,2.92,2.92,0,0,1,0,5.84Z"/><path class="cls-8" d="M97.83,19.54v-3.3c.78.15,1,.73,1.32,1.19a15.64,15.64,0,0,1,1.78,4,9.94,9.94,0,0,1,.18,1.44,25.65,25.65,0,0,1,.07,4.8,1.22,1.22,0,0,1-.39.92c-.37.06-.35-.42-.66-.44h0A2.85,2.85,0,0,0,99.72,27,23.39,23.39,0,0,1,97.83,19.54Z"/><path class="cls-9" d="M123.09,56.44c0-1,0-2.1,0-3.15,0-.44.14-.63.6-.61a14.25,14.25,0,0,1,2.61.17,3.74,3.74,0,0,1-.21,7.37,19.42,19.42,0,0,1-2.41.09c-.46,0-.6-.19-.59-.62C123.1,58.6,123.09,57.52,123.09,56.44Z"/><path class="cls-10" d="M133.38,60.92c.41,0,.8-.19,1.15.18a1.37,1.37,0,0,0,1.78.42,1.56,1.56,0,0,0,.77-1.7,1.5,1.5,0,0,0,0-.18,2.69,2.69,0,0,1-2.39.74,2.38,2.38,0,0,1-1.32-1,2.82,2.82,0,0,1,.29-3.48c.93-.94,2-.9,3.36.15.21-.16,0-.51.22-.62a1.46,1.46,0,0,1,.52,0c.32,0,.42.15.42.45,0,1.5,0,3,0,4.51A2.35,2.35,0,0,1,136,62.57,2.25,2.25,0,0,1,133.38,60.92Z"/><path class="cls-10" d="M169.8,59.7c-1.75,1-2.68,1-3.59-.16a2.78,2.78,0,0,1,.12-3.56c.92-1,1.94-1,3.42.06.24-.15-.05-.55.34-.65s.81.06.81.58c0,1.39,0,2.79,0,4.19A2.47,2.47,0,0,1,169,62.54a2.5,2.5,0,0,1-2.79-1.18.57.57,0,0,1-.06-.43c.39,0,.8-.18,1.14.19a1.36,1.36,0,0,0,1.69.43,1.52,1.52,0,0,0,.85-1.65A1.17,1.17,0,0,0,169.8,59.7Z"/><path class="cls-11" d="M88,36.7a1.29,1.29,0,0,1-.33-1.44,3.59,3.59,0,0,0,0-1.95,1.6,1.6,0,0,1-.09-.41A56.07,56.07,0,0,0,87.35,27a1.4,1.4,0,0,1,.42-1,8.54,8.54,0,0,1,3.37-.76l0,.15-.1.12c-1.28.52-1.33.52-1.24,1.94a39.29,39.29,0,0,0,.24,4.05,32.54,32.54,0,0,0-1.89,5,2.18,2.18,0,0,0-.21.22Z"/><path class="cls-12" d="M101.88,60.88c-.19,0-.41.15-.45-.22a4.12,4.12,0,0,1,.27-1.73,4.66,4.66,0,0,0-.42-3.39,7,7,0,0,1-.7-3.52.87.87,0,0,0-.09-.41,6.38,6.38,0,0,1-.09-2.75c0-.26.17-.36.4-.4l1.67,1.26c-.47,2.51.5,4.73,1.38,7,.12.32.38-.28.59,0a8.21,8.21,0,0,1-1.12,1.87c-.06.09-.17.14-.17.26l0,0a3,3,0,0,0-.65,1.06v0a1.13,1.13,0,0,0-.41.67l0,0c-.22.05-.17.28-.26.41Z"/><path class="cls-9" d="M164.89,60.16c-1,.2-1.1.23-1.33-.52a1.61,1.61,0,0,0-2.08-1.28h-.11a1.67,1.67,0,0,0-2.21,1.38c-.14.64-.63.64-1.28.47,1.08-2.61,2.28-5.13,3.48-7.81Z"/><path class="cls-13" d="M149.69,59.69c-1.43,1-2.53,1-3.43,0a2.72,2.72,0,0,1,0-3.64c.92-1,1.93-1,3.43,0,0-.43.15-.72.66-.66.35,0,.48.15.48.5,0,1.3,0,2.6,0,3.89,0,.25,0,.52-.33.53s-.75.12-.75-.44C149.78,59.8,149.72,59.75,149.69,59.69Z"/><path class="cls-14" d="M173.05,58.08a1.65,1.65,0,0,0,2.59,1.08c.57-.33.57-.33,1.14.18a2.6,2.6,0,0,1-3.12.94A2.54,2.54,0,0,1,172,57.64a2.56,2.56,0,0,1,5.07-.31c.1.65,0,.73-.6.75s-1.12,0-1.68,0Z"/><path class="cls-14" d="M178.12,55.47c.56-.12,1-.25,1.14.49a9.48,9.48,0,0,1,.81-.54,1.55,1.55,0,0,1,2.29,1.28c.07,1,0,2,0,3,0,.38-.09.59-.52.58s-.58-.13-.56-.55c0-.76,0-1.53,0-2.3s-.21-1.2-.76-1.27a1.24,1.24,0,0,0-1.34,1.19,22,22,0,0,0,0,2.3c0,.41-.07.65-.57.63s-.5-.23-.5-.59C178.12,58.29,178.12,56.87,178.12,55.47Z"/><path class="cls-10" d="M191.09,58c.35-.75.66-1.3.87-1.89a.92.92,0,0,1,1.29-.67c.12.24-.06.43-.16.64q-1.32,2.89-2.65,5.79c-.34.73-.35.73-1.36.65a17.35,17.35,0,0,1,1.17-2.63,1.26,1.26,0,0,0-.12-1.52c-.68-.91-1.28-1.89-1.93-2.87a1.13,1.13,0,0,1,1.6.57C190.16,56.7,190.61,57.28,191.09,58Z"/><path class="cls-15" d="M187.3,58.83c.08,1.23-.09,1.45-1.09,1.59A2.6,2.6,0,0,1,184,56a2.8,2.8,0,0,1,3-.58c.57.28.33.75.3,1.24-1-.4-2-.74-2.75.31a1.47,1.47,0,0,0,.11,1.84C185.48,59.72,186.36,59.38,187.3,58.83Z"/><path class="cls-11" d="M104.44,56.67c-.28,0-.38.28-.62.48a16.08,16.08,0,0,1-1.19-2.93,11.3,11.3,0,0,1-.57-3.78c0-.31,0-.65.41-.72l1.33.6a2.65,2.65,0,0,0,0,1.92,9.89,9.89,0,0,0,1.22,3.37A2.72,2.72,0,0,1,104.44,56.67Z"/><path class="cls-16" d="M142.69,58.31V57.16c0-.37.08-.74-.51-.83-.35-.06-.38-.89-.09-.9.65,0,.61-.42.6-.84s.05-.66.55-.66.57.25.56.65-.1.89.59.8c.33,0,.42.16.41.45s0,.54-.36.52c-.72,0-.65.43-.64.89,0,.84,0,1.67,0,2.51,0,.39-.14.57-.55.57s-.58-.14-.56-.55,0-1,0-1.46Z"/><path class="cls-17" d="M153.59,56.55V59.7c0,.34,0,.61-.48.61s-.6-.16-.6-.61c0-2.17,0-4.34,0-6.51,0-.45.15-.62.6-.62s.48.28.48.62Z"/><path class="cls-18" d="M91.57,28.51l-.22.41c-.27,0-.38-.16-.41-.36a5.26,5.26,0,0,1,.2-3.21h0c.1-.13.3-.07.41-.19a7.12,7.12,0,0,1,2.94.2,12.26,12.26,0,0,0-2.73,2.93C91.69,28.36,91.64,28.44,91.57,28.51Z"/><path class="cls-19" d="M105.85,50.52c.6.2.56.74.61,1.2s0,1,0,1.57a.21.21,0,0,1-.16.23,3.57,3.57,0,0,0-.64,1.06h0c-.31.35-.58.21-.7-.13a12.51,12.51,0,0,1-.78-3.41c0-.38.15-.69.65-.48Z"/><path class="cls-18" d="M104.84,50.55c-.34,0-.51.23-.44.56.26,1.1.54,2.18.8,3.28.08.34.28.2.47.18a2.27,2.27,0,0,1-.6,1c-.34.15-.53,0-.62-.31a35.59,35.59,0,0,1-1.07-3.89c-.07-.41-.27-.94.42-1.09A2.32,2.32,0,0,1,104.84,50.55Z"/><path class="cls-20" d="M140.89,57.8c0,.67,0,1.33,0,2,0,.44-.22.52-.59.52s-.49-.15-.49-.5c0-1.33,0-2.65,0-4,0-.39.2-.46.53-.45s.55,0,.55.43C140.89,56.48,140.89,57.14,140.89,57.8Z"/><path class="cls-1" d="M131.49,57.91c0,.63,0,1.25,0,1.88,0,.34-.1.52-.47.52s-.6-.06-.59-.51c0-1.32,0-2.64,0-4,0-.39.2-.45.52-.45s.55,0,.54.44C131.48,56.52,131.49,57.21,131.49,57.91Z"/><path class="cls-21" d="M57.1,8.6A24.19,24.19,0,0,1,64,11.52c0,.18,0,.3-.22.19a44.16,44.16,0,0,0-7-2.92C56.88,8.65,57,8.64,57.1,8.6Z"/><path class="cls-22" d="M140.39,53a.79.79,0,1,1-.1,1.57.83.83,0,0,1-.77-.83A.85.85,0,0,1,140.39,53Z"/><path class="cls-23" d="M131,54.57a.79.79,0,1,1-.1-1.57.78.78,0,0,1,.84.74A.77.77,0,0,1,131,54.57Z"/><path class="cls-24" d="M42.78,7.25a17.68,17.68,0,0,1,5.53,0,.42.42,0,0,1-.34.12h-4.3C43.38,7.34,43.05,7.5,42.78,7.25Z"/><path class="cls-25" d="M42.78,7.25l.87.08v.14c-.85,0-1.67.26-2.52.2-.19-.22-.47-.13-.7-.2A8,8,0,0,1,42.78,7.25Z"/><path class="cls-26" d="M44.92,7.29l3.23,0,0,.08-.07.06a28.11,28.11,0,0,1-3.18,0c-.07,0-.08-.08-.06-.11S44.9,7.29,44.92,7.29Z"/><path class="cls-27" d="M69.71,16.53a2.86,2.86,0,0,1-1.15-1.31c.48.35,1,.64,1.16,1.3Z"/><path class="cls-28" d="M54.38,8a4.35,4.35,0,0,1,1.47.36c.07,0,.1.09.07.13s0,.07-.07.07a4.09,4.09,0,0,1-1.49-.37c-.06-.05-.08-.09,0-.13A.1.1,0,0,1,54.38,8Z"/><path class="cls-29" d="M52.49,7.87,51,7.68c-.07,0-.1-.07-.08-.12s0-.07.06-.07a2.69,2.69,0,0,1,1.48.21c.07,0,.1.08.07.12A.1.1,0,0,1,52.49,7.87Z"/><path class="cls-30" d="M52.49,7.87V7.7A2.85,2.85,0,0,1,54,7.93C54,8,54.05,8,54,8A.1.1,0,0,1,54,8.1,6.62,6.62,0,0,1,52.49,7.87Z"/><path class="cls-31" d="M51,7.49a1.23,1.23,0,0,0,0,.19A1.38,1.38,0,0,1,50,7.51c-.07,0-.09-.09-.06-.13a.1.1,0,0,1,.08,0A1.67,1.67,0,0,1,51,7.49Z"/><path class="cls-32" d="M50,7.33a.55.55,0,0,0,0,.18l-1.86,0a.14.14,0,0,1,0-.14.29.29,0,0,0,.16-.07Z"/><path class="cls-33" d="M69.93,16.74a1.39,1.39,0,0,1,.74.9c-.35-.2-.72-.4-.75-.9Z"/><path class="cls-18" d="M105.67,54.58a1,1,0,0,1,.64-1.06A2.32,2.32,0,0,1,105.67,54.58Z"/><path class="cls-34" d="M67.19,13.8a1.9,1.9,0,0,1,.79.76.87.87,0,0,1-.79-.51c0-.06-.07-.11,0-.16S67.17,13.8,67.19,13.8Z"/><path class="cls-4" d="M102.52,59.84a1,1,0,0,1,.65-1.06A2.58,2.58,0,0,1,102.52,59.84Z"/><path class="cls-35" d="M44.92,7.29v.17H43.66a.61.61,0,0,0,0-.14Z"/><path class="cls-1" d="M99.72,27a1,1,0,0,1,.42,1.09A2,2,0,0,1,99.72,27Z"/><path class="cls-36" d="M63.81,11.71l.22-.19.64.4a.19.19,0,0,1,0,.3A2.55,2.55,0,0,1,63.81,11.71Z"/><path class="cls-37" d="M65.92,12.79a1.16,1.16,0,0,1,.65.56c.05,0,.07.09.05.13s0,.07,0,.07a1.17,1.17,0,0,1-.65-.48A.19.19,0,0,1,65.92,12.79Z"/><path class="cls-38" d="M55.85,8.53v-.2a1.15,1.15,0,0,1,.84.21c.07,0,.09.09.07.14a.1.1,0,0,1-.07.06A1.46,1.46,0,0,1,55.85,8.53Z"/><path class="cls-39" d="M105.68.83c-.07-.17-.05-.38-.26-.48.07-.19.16-.35.41-.35A.92.92,0,0,1,105.68.83Z"/><path class="cls-5" d="M81.27,38.79c.25-.31.59-.18.9-.18A1.35,1.35,0,0,1,81.27,38.79Z"/><path class="cls-40" d="M64.64,12.22l0-.3a.7.7,0,0,1,.44.33.15.15,0,0,1,.06.17c0,.05,0,.08-.06.08A.79.79,0,0,1,64.64,12.22Z"/><path class="cls-41" d="M65.29,12.36a.54.54,0,0,1,.44.34.17.17,0,0,1,.06.15c0,.05,0,.08-.05.08a.58.58,0,0,1-.45-.32.2.2,0,0,1-.05-.17C65.26,12.38,65.28,12.36,65.29,12.36Z"/><path class="cls-4" d="M102.12,60.49a.52.52,0,0,1,.41-.67A1.05,1.05,0,0,1,102.12,60.49Z"/><path class="cls-6" d="M85.44,27c0,.24-.22.27-.43.25A.52.52,0,0,1,85.44,27Z"/><path class="cls-42" d="M91.56,25.16a.42.42,0,0,1-.41.19,1,1,0,0,1,0-.17Z"/><path class="cls-1" d="M98.11,45.09a.4.4,0,0,1-.25-.4A.46.46,0,0,1,98.11,45.09Z"/><path class="cls-43" d="M54,8.1V7.93l.42,0a1.23,1.23,0,0,1,0,.19Z"/><path class="cls-1" d="M97.72,44.44c-.24,0-.26-.23-.25-.43A.5.5,0,0,1,97.72,44.44Z"/><path class="cls-4" d="M101.88,60.88c0-.2,0-.37.26-.41A.5.5,0,0,1,101.88,60.88Z"/><path class="cls-44" d="M56.69,8.74v-.2l.41.06-.25.19h-.09Z"/><path class="cls-45" d="M69.72,16.52a.24.24,0,0,1,.21.22h0a.22.22,0,0,1-.21-.21Z"/><path class="cls-46" d="M65.74,12.93V12.7a.48.48,0,0,1,.19.09v.28Z"/><path class="cls-47" d="M66.58,13.55a1.41,1.41,0,0,0,0-.2c.12,0,.21.09.2.24h0Z"/><path class="cls-48" d="M65.29,12.36v.25l-.18-.11v-.25Z"/><path class="cls-49" d="M67,13.79c-.14,0-.23,0-.21-.21h0c.15,0,.23.05.21.22Z"/><path class="cls-50" d="M67.19,13.8v.25c-.11-.05-.21-.11-.2-.26v0Z"/><path class="cls-4" d="M103.15,58.8a.3.3,0,0,1,.17-.26A.24.24,0,0,1,103.15,58.8Z"/><path class="cls-1" d="M97.86,44.68a.28.28,0,0,1-.16-.27A.25.25,0,0,1,97.86,44.68Z"/><path class="cls-42" d="M91.14,25.35v3a.6.6,0,0,0,.21.56l-1.26,2.52a1.17,1.17,0,0,1-.41-.92c-.05-1.44-.05-2.87-.15-4.3,0-.45,0-.62.49-.69A4.23,4.23,0,0,1,91.14,25.35Z"/><path class="cls-42" d="M91.57,28.51l.2-.22Z"/><path class="cls-7" d="M88,36.7l.21-.22Z"/><path class="cls-51" d="M158,40.93c0-.73,0-1.47,0-2.2,0-.33.09-.52.47-.52a6.86,6.86,0,0,1,3.06.56,2.26,2.26,0,0,1,.4,4.1,5.62,5.62,0,0,1-3.61.8c-.35,0-.32-.3-.32-.54Z"/><path class="cls-52" d="M158,33.91c0-.63,0-1.26,0-1.88,0-.35.14-.53.48-.52a4.48,4.48,0,0,1,2.21.53,2,2,0,0,1,.3,3.36,4.12,4.12,0,0,1-2.62.87c-.36,0-.37-.22-.37-.48Z"/><path class="cls-53" d="M171,34.29c0-.73,0-1.47,0-2.2,0-.33.07-.55.46-.53a10.39,10.39,0,0,1,2.6.31,2.48,2.48,0,0,1,1.78,2.35,2.41,2.41,0,0,1-1.62,2.45A7,7,0,0,1,173,37c-2,.39-2,.39-2-1.66Z"/><path class="cls-54" d="M185,39.66a.48.48,0,0,1,0-.43l2.32-5.18,2.55,5.61Z"/><path class="cls-54" d="M148.36,39.66h-5c.74-1.89,1.6-3.65,2.48-5.61C146.71,36,147.51,37.79,148.36,39.66Z"/><path class="cls-55" d="M124.15,56.45c0-.7,0-1.4,0-2.1,0-.43.11-.64.58-.62a5.49,5.49,0,0,1,1.85.31,2.7,2.7,0,0,1-.67,5.12c-1.66.3-1.76.22-1.76-1.46Z"/><path class="cls-52" d="M137.2,57.85a1.56,1.56,0,0,1-1.58,1.59A1.61,1.61,0,0,1,134,57.78a1.64,1.64,0,0,1,1.66-1.54A1.57,1.57,0,0,1,137.2,57.85Z"/><path class="cls-56" d="M170,57.86a1.57,1.57,0,0,1-1.59,1.58,1.61,1.61,0,0,1-1.63-1.67,1.63,1.63,0,0,1,1.67-1.53A1.57,1.57,0,0,1,170,57.86Z"/><path class="cls-57" d="M161.39,54.9l1.12,2.52h-2.25A13.37,13.37,0,0,1,161.39,54.9Z"/><path class="cls-58" d="M148.37,59.45a1.56,1.56,0,0,1-1.63-1.53,1.64,1.64,0,0,1,1.61-1.68,1.67,1.67,0,0,1,1.6,1.61A1.61,1.61,0,0,1,148.37,59.45Z"/><path class="cls-59" d="M176,57.18h-2.83a1.52,1.52,0,0,1,2.83,0Z"/></g></g></svg>