<svg xmlns="http://www.w3.org/2000/svg" width="150" height="121.997" viewBox="0 0 150 121.997">
  <g id="logo-ar" transform="translate(-1141.79 -924.021)">
    <path id="Path_1" data-name="Path 1" d="M3134.337,1281.176c-.987,3.89-3.7,7.71-5.748,11.084-.87,1.434-2.057,3.867-3.338,5.054-.906,1.518-2.017,3.373-3.291,5.489-4.537,7.531-4.949,8.076-5.771,8.38-7.627,2.821-13.164-6.994-15.315-12.976a32.214,32.214,0,0,1-.364-20.369c1.182-3.917,4.176-8.479,5.736-11.084,1.416-2.363,2.688-4.272,3.6-5.591a37.7,37.7,0,0,0,.031,15.471,30.364,30.364,0,0,0,1.775,5.658c2.21,5.172,6.876,12.776,13.2,11.719,1.61-17.243-14.88-31.571-10.79-49.4.882-3.867,3.726-7.769,5.748-11.084.435-.717,4.572-6.394,4.4-5.642-4.36,19.041,15.01,34.121,10.132,53.292" transform="translate(-1843.341 -286.197)" fill="#fff"/>
    <path id="Path_2" data-name="Path 2" d="M1265.978,1417.174l.018-.037c-6.078-1.419-12.508,1.217-17.259,5.265s-8.18,9.385-11.78,14.484c-8.133,11.52-17.829,22.476-30.509,28.647s-28.876,6.672-40.179-1.761c-8.634-6.442-13.362-17.47-12.979-28.235.566-15.88,10.71-25.992,13.383-28.533,17.613-16.752,48.765-17.625,64.311-3.667a71.945,71.945,0,0,1,5.624,6.7c.007-.006-3.443-4.431-5.624-6.7-10.87-11.284-29.959-10.142-34.344-9.88-3.591.215-24.505,1.823-39.482,19.074-13.48,15.527-22.432,44.089-7.975,61.774,8.952,10.951,25.1,15.485,37.375,12.458,14.091-3.476,25.209-13.165,34.368-24,8.816-10.431,18.217-31.948,34.921-28.024,3.133.737,8.968-15.125,10.131-17.564" transform="translate(0 -441.665)" fill="#fff"/>
    <rect id="Rectangle_1" data-name="Rectangle 1" width="15.131" height="15.131" transform="translate(1261.884 928.374) rotate(45)" fill="#fff"/>
    <rect id="Rectangle_2" data-name="Rectangle 2" width="15.131" height="15.131" transform="translate(1242.78 1010.642) rotate(45)" fill="#fff"/>
    <path id="Path_3" data-name="Path 3" d="M2661.755,1652.152a3.8,3.8,0,1,1-3.8-3.8,3.8,3.8,0,0,1,3.8,3.8" transform="translate(-1424.437 -682.217)" fill="#fff"/>
    <path id="Path_4" data-name="Path 4" d="M1700.258,1530.9c-4.3-7.323-15.162-9.321-12.13-19.829.176-.611-3.714,4.6-4.161,5.325-1.975,3.244-4.373,6.794-5.43,10.484-.106.376-.2.752-.27,1.105a42.918,42.918,0,0,0-3.444,4.96c-4.2,7.029-9.72,15.527-9.239,24.084.541,9.4,9.568,15.6,18,17.631,1.657.4,4.584-5.795,6.782-10.731.117-.153.247-.317.376-.505a81.311,81.311,0,0,0,6.782-11.73c3.032-6.183,6.617-14.175,2.739-20.792m-21,19.123a14.891,14.891,0,0,1-3.632-14.046,14.2,14.2,0,0,1,2.363-4.8c.305,5.325,4.7,8.322,9.062,12.2,4.655,4.138,5.877,9.015,4.655,14.281a26.456,26.456,0,0,1-12.447-7.64" transform="translate(-493.283 -552.749)" fill="#fff"/>
    <path id="Path_5" data-name="Path 5" d="M1917.638,924.021l8.632,8.632-7.112,7.112-.4.4-.384.384.384.4.4.384,7.112,7.127-8.632,8.617-8.617-8.617,7.112-7.127.383-.384.4-.4-.4-.384-.383-.4-7.112-7.112Z" transform="translate(-722.609)" fill="#fff"/>
  </g>
</svg>
