<svg xmlns="http://www.w3.org/2000/svg" width="176" height="176" viewBox="0 0 176 176">
  <g id="Group_7" data-name="Group 7" transform="translate(962 -1605)">
    <circle id="Ellipse_1" data-name="Ellipse 1" cx="88" cy="88" r="88" transform="translate(-962 1605)" fill="#fff"/>
    <g id="Group_6" data-name="Group 6" transform="translate(-962 1605)">
      <g id="Layer_2" data-name="Layer 2">
        <g id="_09.whatsapp" data-name="09.whatsapp">
          <circle id="background" cx="88" cy="88" r="88" fill="#29a71a"/>
          <g id="icon">
            <path id="Path_15" data-name="Path 15" d="M126.8,49.2a54.57,54.57,0,0,0-87.42,63.13l-5.79,28.11a2.08,2.08,0,0,0,.33,1.63,2.11,2.11,0,0,0,2.24.87l27.55-6.53A54.56,54.56,0,0,0,126.8,49.2Zm-8.59,68.56a42.74,42.74,0,0,1-49.22,8l-3.84-1.9-16.89,4,.05-.21,3.5-17-1.88-3.71a42.721,42.721,0,0,1,68.28-49.59,2.279,2.279,0,0,0,.22.22A42.72,42.72,0,0,1,118.21,117.76Z" fill="#fff"/>
            <path id="Path_16" data-name="Path 16" d="M116.71,105.29c-2.07,3.26-5.34,7.25-9.45,8.24-7.2,1.74-18.25.06-32-12.76l-.17-.15C63,89.41,59.86,80.08,60.62,72.68c.42-4.2,3.92-8,6.87-10.48a3.93,3.93,0,0,1,6.15,1.41l4.45,10a3.91,3.91,0,0,1-.49,4l-2.25,2.92A3.87,3.87,0,0,0,75,84.85c1.26,2.21,4.28,5.46,7.63,8.47,3.76,3.4,7.93,6.51,10.57,7.57a3.82,3.82,0,0,0,4.19-.88L100,97.38a4,4,0,0,1,3.9-1l10.57,3a4,4,0,0,1,2.24,5.91Z" fill="#fff"/>
          </g>
        </g>
      </g>
    </g>
  </g>
</svg>
