<svg id="Branding" xmlns="http://www.w3.org/2000/svg" width="52.203" height="50" viewBox="0 0 52.203 50">
  <path id="Path_17" data-name="Path 17" d="M335.42,42.687a.753.753,0,0,0-1.446.422,6.217,6.217,0,0,1-.59,4.853,6.284,6.284,0,0,1-2.208,2.231l-.315.187a.753.753,0,0,0-.368.647v.951h-1.761V48.917a2.1,2.1,0,0,0,1.387-1.974V45.3a2.1,2.1,0,0,0-2.1-2.1h-.078a2.1,2.1,0,0,0-2.1,2.1v1.644a2.1,2.1,0,0,0,1.386,1.974v3.061h-1.76v-.951a.754.754,0,0,0-.368-.647l-.315-.187a6.277,6.277,0,0,1-2.208-2.231,6.235,6.235,0,0,1,9.759-7.57.753.753,0,1,0,1.049-1.08,7.737,7.737,0,1,0-9.422,12.144V52.1a1.2,1.2,0,0,0-.677,1.08v3.443a1.2,1.2,0,0,0,1.2,1.2h1.12v1.059a1.311,1.311,0,0,0,1.309,1.31h2.131a1.312,1.312,0,0,0,1.31-1.31V57.827h1.119a1.2,1.2,0,0,0,1.2-1.2V53.181A1.2,1.2,0,0,0,332,52.1v-.646a7.721,7.721,0,0,0,3.421-8.768ZM327.346,45.3a.6.6,0,0,1,.595-.6h.078a.6.6,0,0,1,.595.6v1.644a.6.6,0,0,1-.595.6h-.078a.6.6,0,0,1-.595-.6Zm1.5,13.39H327.11v-.862h1.738Zm2.322-2.368h-6.382V53.484h6.382Zm0,0" transform="translate(-287.282 -33.441)" fill="#511156"/>
  <path id="Path_18" data-name="Path 18" d="M390.659,3.255a.753.753,0,0,0,.753-.753V1.253a.753.753,0,1,0-1.506,0V2.5A.753.753,0,0,0,390.659,3.255Zm0,0" transform="translate(-350.133 -0.5)" fill="#511156"/>
  <path id="Path_19" data-name="Path 19" d="M346.453,12.189a.753.753,0,1,0,1.375-.615l-.511-1.14a.753.753,0,1,0-1.374.615Zm0,0" transform="translate(-310.59 -9.036)" fill="#511156"/>
  <path id="Path_20" data-name="Path 20" d="M309.8,37.862l.932.833a.753.753,0,0,0,1-1.123l-.932-.833a.753.753,0,0,0-1,1.123Zm0,0" transform="translate(-277.966 -32.928)" fill="#511156"/>
  <path id="Path_21" data-name="Path 21" d="M287.758,77.039l1.192.382a.753.753,0,0,0,.46-1.434l-1.192-.382a.753.753,0,1,0-.46,1.434Zm0,0" transform="translate(-257.924 -68.032)" fill="#511156"/>
  <path id="Path_22" data-name="Path 22" d="M283.564,120.564a.731.731,0,0,0,.082,0l1.244-.135a.753.753,0,0,0-.163-1.5l-1.244.135a.753.753,0,0,0,.08,1.5Zm0,0" transform="translate(-253.952 -106.842)" fill="#511156"/>
  <path id="Path_23" data-name="Path 23" d="M297.419,157.352a.753.753,0,0,0,.759,1.3l1.081-.63a.753.753,0,1,0-.758-1.3Zm0,0" transform="translate(-266.735 -140.691)" fill="#511156"/>
  <path id="Path_24" data-name="Path 24" d="M429.295,12.565a.752.752,0,0,0,.995-.38l.511-1.14a.753.753,0,0,0-1.375-.615l-.51,1.14A.753.753,0,0,0,429.295,12.565Zm0,0" transform="translate(-384.995 -9.032)" fill="#511156"/>
  <path id="Path_25" data-name="Path 25" d="M461.73,38.888a.751.751,0,0,0,.5-.192l.932-.833a.753.753,0,0,0-1-1.123l-.932.833a.753.753,0,0,0,.5,1.315Zm0,0" transform="translate(-413.897 -32.929)" fill="#511156"/>
  <path id="Path_26" data-name="Path 26" d="M480.739,76.934a.753.753,0,0,0,.947.487l1.192-.382a.753.753,0,1,0-.46-1.434l-1.192.382A.753.753,0,0,0,480.739,76.934Zm0,0" transform="translate(-431.642 -68.032)" fill="#511156"/>
  <path id="Path_27" data-name="Path 27" d="M486.68,119.061l-1.244-.135a.753.753,0,1,0-.163,1.5l1.244.135c.028,0,.055,0,.082,0a.753.753,0,0,0,.08-1.5Zm0,0" transform="translate(-435.149 -106.841)" fill="#511156"/>
  <path id="Path_28" data-name="Path 28" d="M474.208,157.353l-1.081-.63a.753.753,0,1,0-.758,1.3l1.081.63a.753.753,0,1,0,.758-1.3Zm0,0" transform="translate(-423.808 -140.692)" fill="#511156"/>
  <path id="Path_29" data-name="Path 29" d="M76.819,159.932h7.637a.753.753,0,1,0,0-1.506H76.819a.753.753,0,1,0,0,1.506Zm0,0" transform="translate(-68.429 -142.316)" fill="#511156"/>
  <path id="Path_30" data-name="Path 30" d="M41.776,348.654H56.45a.753.753,0,0,0,0-1.506H41.776a.753.753,0,0,0,0,1.506Zm0,0" transform="translate(-36.905 -311.787)" fill="#511156"/>
  <path id="Path_31" data-name="Path 31" d="M213.539,242.145a4.463,4.463,0,1,0-4.463,4.466A4.469,4.469,0,0,0,213.539,242.145Zm-4.463-2.96a2.962,2.962,0,0,1,2.953,2.8,3,3,0,0,1-.367.024,2.961,2.961,0,0,1-2.952-2.8A2.9,2.9,0,0,1,209.076,239.186Zm-2.956,2.96a2.957,2.957,0,0,1,1.145-2.336,4.47,4.47,0,0,0,4.4,3.711h.032a2.955,2.955,0,0,1-5.574-1.374Zm0,0" transform="translate(-183.684 -213.415)" fill="#511156"/>
  <path id="Path_32" data-name="Path 32" d="M44.014,136.85l-3.882-2.078a4.708,4.708,0,0,0-1.937-.485H24.861V131.9c.2.009.4.016.6.016A12.864,12.864,0,0,0,36.548,125.6a1.267,1.267,0,0,0,0-1.277,12.863,12.863,0,0,0-11.088-6.31c-.2,0-.4.006-.6.015v-9.356a1.268,1.268,0,0,0-1.278-1.255H9.507a.753.753,0,1,0,0,1.506H23.328v9.267a12.9,12.9,0,0,0-1.616.378v-.658a1.268,1.268,0,0,0-1.278-1.255H4.428a1.268,1.268,0,0,0-1.278,1.255V128.4a1.268,1.268,0,0,0,1.278,1.255H18.166a12.958,12.958,0,0,0,5.161,2.077v2.554h-9.22a1.608,1.608,0,0,0-1.376.77H4.96a.753.753,0,1,0,0,1.506H12.5v2.064H4.96a.753.753,0,1,0,0,1.506h7.556a1.594,1.594,0,0,0,1.591,1.388h9.22v2.892H1.533V108.924H5.827a.753.753,0,1,0,0-1.506H1.278A1.268,1.268,0,0,0,0,108.673v35.991a1.268,1.268,0,0,0,1.278,1.255H23.583a1.268,1.268,0,0,0,1.278-1.255v-3.143H38.2a4.708,4.708,0,0,0,1.937-.485l3.882-2.078a1.142,1.142,0,0,0,0-2.108Zm-26.659,3.166H14.107a.071.071,0,0,1-.07-.066v-4.09a.071.071,0,0,1,.07-.066h3.248ZM4.683,128.151v-9.988H20.178v.979a12.735,12.735,0,0,0-5.8,5.182,1.266,1.266,0,0,0,0,1.277,12.53,12.53,0,0,0,1.973,2.55Zm11.085-3.188a11.351,11.351,0,0,1,19.383,0,11.35,11.35,0,0,1-19.383,0Zm21.323,12.189H33.938a.753.753,0,1,0,0,1.506h3.153v1.359h-18.2v-1.359H30.361a.753.753,0,1,0,0-1.506H18.888v-1.358h18.2Zm3.18,2.1-.873.467a3.1,3.1,0,0,1-.774.25v-4.121a3.106,3.106,0,0,1,.774.25l.873.467Zm1.533-.821v-1.044l.975.522Zm0,0" transform="translate(0 -95.92)" fill="#511156"/>
</svg>
