<svg id="Digital" xmlns="http://www.w3.org/2000/svg" width="45.833" height="50" viewBox="0 0 45.833 50">
  <path id="Path_33" data-name="Path 33" d="M100.1,1.667H121.4a2.48,2.48,0,0,1,2.459,2.5V5H105.834V6.667h18.029V32.155L118.3,26.494c-.026-.026-.058-.045-.082-.071l.711-2.887.661-2.7H121.4V19.167h-2.459a.823.823,0,0,0-.8.631l-.663,2.7H103.375a.816.816,0,0,0-.646.321.845.845,0,0,0-.149.715l1.639,6.667a.823.823,0,0,0,.8.631h7.336a3.719,3.719,0,0,0,.689,1.006l.65.661h-9.495v1.667h11.134l4.234,4.306-.364.647a8.828,8.828,0,0,0-.943,2.547H97.639v-17.5H96V45.833A4.137,4.137,0,0,0,100.1,50h18.029V48.333H100.1a2.48,2.48,0,0,1-2.459-2.5v-2.5h20.449a8.717,8.717,0,0,0,1.678,5.284V50H121.4V48.333a.842.842,0,0,0-.18-.521,7.075,7.075,0,0,1-.6-7.865l.675-1.2a.844.844,0,0,0-.132-1L114.2,30.663a2.139,2.139,0,0,1,.023-2.965,2.054,2.054,0,0,1,2.916-.024l8.6,8.75,1.159-1.178-1.4-1.425V4.167A4.137,4.137,0,0,0,121.4,0H100.1a4.062,4.062,0,0,0-1.024.131l.41,1.615a2.425,2.425,0,0,1,.614-.079Zm11.569,27.5h-1.831l-.2-1.667h2.241Zm.41-3.333h-2.651l-.2-1.667h3.06Zm-4.507-1.667.2,1.667h-2.939l-.41-1.667ZM105.245,27.5h2.734l.2,1.667h-2.529Zm8.467-1.538.221-1.8h3.144l-.344,1.4A3.658,3.658,0,0,0,113.712,25.962Zm0,0" transform="translate(-85.406 0)" fill="#511156"/>
  <path id="Path_34" data-name="Path 34" d="M232,432h1.639v1.639H232Zm0,0" transform="translate(-207.818 -386.917)" fill="#511156"/>
  <path id="Path_35" data-name="Path 35" d="M399.233,258.01v16.354h1.639V258.01a9,9,0,0,0-2.213-5.919l-.992-1.2-1.261,1.046,1,1.213A7.375,7.375,0,0,1,399.233,258.01Zm0,0" transform="translate(-355.039 -224.365)" fill="#511156"/>
  <path id="Path_36" data-name="Path 36" d="M187.278,337.639A1.639,1.639,0,1,1,185.639,336,1.639,1.639,0,0,1,187.278,337.639Zm0,0" transform="translate(-164.808 -300.959)" fill="#511156"/>
  <path id="Path_37" data-name="Path 37" d="M267.278,337.639A1.639,1.639,0,1,1,265.639,336,1.639,1.639,0,0,1,267.278,337.639Zm0,0" transform="translate(-236.464 -300.959)" fill="#511156"/>
  <path id="Path_38" data-name="Path 38" d="M212.562,136v2.939l-1.06-1.06-1.159,1.159L212.8,141.5a.82.82,0,0,0,1.159,0l2.459-2.459-1.159-1.159-1.06,1.06V136Zm0,0" transform="translate(-188.376 -121.802)" fill="#511156"/>
  <path id="Path_39" data-name="Path 39" d="M9.834,43.669A9.834,9.834,0,1,0,0,33.834,9.834,9.834,0,0,0,9.834,43.669Zm0-18.029a8.2,8.2,0,1,1-8.2,8.2A8.2,8.2,0,0,1,9.834,25.639Zm0,0" transform="translate(0 -21.541)" fill="#511156"/>
  <path id="Path_40" data-name="Path 40" d="M66.143,69.973l1.95.328a.955.955,0,0,1-.156,1.895H64.794v1.639h1.639v.82h1.639v-.834a2.588,2.588,0,0,0,.29-5.139l-1.95-.328a.955.955,0,0,1,.156-1.895h3.143V64.82H68.072V64H66.433v.834a2.588,2.588,0,0,0-.29,5.139Zm0,0" transform="translate(-57.418 -57.444)" fill="#511156"/>
</svg>
