<svg id="Identity" xmlns="http://www.w3.org/2000/svg" width="49.717" height="50" viewBox="0 0 49.717 50">
  <path id="Path_41" data-name="Path 41" d="M77.572,33.988H72.505a.591.591,0,0,0-.1.01l-.009,0a.6.6,0,0,0-.092.028l-.03.013a.589.589,0,0,0-.067.036l-.027.017a.589.589,0,0,0-.082.067l-7.17,7.145a.58.58,0,0,0-.068.082l-.017.026a.579.579,0,0,0-.037.068l-.013.029a.594.594,0,0,0-.03.1v0a.608.608,0,0,0-.01.1s0,.008,0,.012v10a.6.6,0,1,0,1.2,0v-9.4h4.987a2.185,2.185,0,0,0,2.182-2.183V35.184h4.457a.6.6,0,0,0,0-1.2ZM71.92,40.145a.988.988,0,0,1-.987.987H66.8l.561-.559,4.564-4.548Z" transform="translate(-55.819 -29.704)" fill="#511156"/>
  <path id="Path_42" data-name="Path 42" d="M103.234,128.227a.6.6,0,1,0,0,1.2H118.74l-.379.542a1.941,1.941,0,0,0,3.182,2.225l7.882-11.272v6.158a1.153,1.153,0,0,1-1.151,1.151h-1.948a.6.6,0,1,0,0,1.2h1.948a2.35,2.35,0,0,0,2.347-2.347v-7.868l4.458-6.375a4.714,4.714,0,0,0,.777-1.857l.412-2.231a.6.6,0,0,0-.883-.629l-1.963,1.114a4.774,4.774,0,0,0-1.547,1.408l-1.255,1.795V99.154a.6.6,0,0,0-1.2,0V113.8a.591.591,0,0,0,.059.254l-9.907,14.168Zm29.622-16.9a3.571,3.571,0,0,1,1.157-1.053l.847-.481-.179.969a3.528,3.528,0,0,1-.582,1.39l-4.572,6.538h0L120.563,131.5a.745.745,0,1,1-1.222-.854Z" transform="translate(-87.462 -83.849)" fill="#511156"/>
  <path id="Path_43" data-name="Path 43" d="M6.65,186.066A57.934,57.934,0,0,0,17.2,188.18a.6.6,0,0,0,.646-.454l1.089-4.5a.6.6,0,0,0-.46-.726l-.688-.143L18.8,178.5c.853.066,1.725.079,2.357.08a2.388,2.388,0,0,0,2.289-1.694l.435-1.41a.6.6,0,0,0-.4-.75,18.267,18.267,0,0,1-4.34-2.109,3.244,3.244,0,0,1-1.333-1.707,40.592,40.592,0,0,1-1.328-6.475,1.607,1.607,0,0,0-2.333-1.213l-.5.258a1.784,1.784,0,0,0-2.682-.688l-2.087,1.55A2.175,2.175,0,0,0,8,166.205c.037.7.1,1.312.146,1.674l-.653.514a2.164,2.164,0,0,0-.822,1.884,15.78,15.78,0,0,0,2.04,6.477,1.4,1.4,0,0,1,.162.975L8.346,180.4l-.364-.075a.6.6,0,0,0-.706.458l-1.007,4.6a.6.6,0,0,0,.38.69Zm1.216-15.888a.972.972,0,0,1,.37-.845l.107-.084a13.744,13.744,0,0,0,.985,3.239.6.6,0,0,0,1.084-.5,13.627,13.627,0,0,1-1.031-3.9.089.089,0,0,0,0-.011.1.1,0,0,0,0-.02c0-.007-.125-.87-.179-1.911a.982.982,0,0,1,.393-.843l.565-.419a19.291,19.291,0,0,0,1.252,6.066.6.6,0,0,0,1.1-.476,19.659,19.659,0,0,1-1.189-6.451l.362-.269a.585.585,0,0,1,.93.41l.027.264a36.063,36.063,0,0,0,.9,5.4.6.6,0,1,0,1.156-.307,34.25,34.25,0,0,1-.826-4.8l.83-.432a.411.411,0,0,1,.6.311,40.649,40.649,0,0,0,1.378,6.693,4.443,4.443,0,0,0,1.824,2.339,20.83,20.83,0,0,0,4.071,2.063l-.261.846a1.2,1.2,0,0,1-1.148.85,27.158,27.158,0,0,1-2.741-.12.6.6,0,0,0-.641.442l-1.16,4.408-7.1-1.473.531-2.676a2.59,2.59,0,0,0-.3-1.809,14.56,14.56,0,0,1-1.881-5.976Zm.452,11.433,9.306,1.931-.819,3.387a58.076,58.076,0,0,1-9.253-1.818Z" transform="translate(-6.256 -138.184)" fill="#511156"/>
  <path id="Path_44" data-name="Path 44" d="M188.8,6.62l-4.68.5a.6.6,0,0,0-.532.651l.035.37-2.708.234a1.393,1.393,0,0,1-.951-.267A15.78,15.78,0,0,0,173.75,5.37a2.165,2.165,0,0,0-1.963.61l-.583.593c-.355-.083-.957-.215-1.648-.329a2.176,2.176,0,0,0-1.95.666l-1.978,2.128a1.608,1.608,0,0,0,.559,2.577l-.133.2A1.779,1.779,0,0,0,167.1,14.53a38.79,38.79,0,0,1,6.06,1.971,3.245,3.245,0,0,1,1.551,1.511,18.255,18.255,0,0,1,1.621,4.545.6.6,0,0,0,.7.483l1.449-.278a2.388,2.388,0,0,0,1.935-2.09c.069-.624.151-1.495.178-2.351l3.946-.587.066.7a.6.6,0,0,0,.595.541.618.618,0,0,0,.076,0l4.595-.589a.6.6,0,0,0,.522-.592,57.96,57.96,0,0,0-.946-10.715A.6.6,0,0,0,188.8,6.62Zm-8.885,10.593a.6.6,0,0,0-.51.589,27.207,27.207,0,0,1-.181,2.738,1.2,1.2,0,0,1-.972,1.048l-.87.167a20.812,20.812,0,0,0-1.6-4.272,4.443,4.443,0,0,0-2.124-2.069,39.886,39.886,0,0,0-6.267-2.044.584.584,0,0,1-.341-.891l.383-.572a34.261,34.261,0,0,1,4.685,1.347.6.6,0,1,0,.432-1.115,36.083,36.083,0,0,0-5.271-1.486l-.557-.12a.41.41,0,0,1-.214-.681l.515-.555a19.614,19.614,0,0,1,6.282,1.888.6.6,0,0,0,.593-1.038A19.286,19.286,0,0,0,168,8.239l.478-.516a.982.982,0,0,1,.881-.3c1.029.169,1.872.386,1.88.389a.143.143,0,0,0,.02,0,.059.059,0,0,1,.011,0,13.586,13.586,0,0,1,3.762,1.452.6.6,0,0,0,.62-1.023,13.739,13.739,0,0,0-3.112-1.334l.1-.1a.972.972,0,0,1,.881-.275,14.562,14.562,0,0,1,5.733,2.524,2.591,2.591,0,0,0,1.765.5l2.719-.235.687,7.214Zm5.82.492-.9-9.462,3.562-.378a58.12,58.12,0,0,1,.794,9.4Z" transform="translate(-140.674 -5.329)" fill="#511156"/>
  <path id="Path_45" data-name="Path 45" d="M121.016,96.882a9.611,9.611,0,0,0-4.678,17.928.531.531,0,0,1,.26.46v4.091a4,4,0,0,0,3.994,3.994h1.12a4,4,0,0,0,3.994-3.994v-2.028a.6.6,0,0,0-.6-.6h-2.041V115a1.579,1.579,0,0,1,.656-1.283,7.711,7.711,0,0,0,3.195-4.409,6.052,6.052,0,0,0-.34-3.112,3.345,3.345,0,0,0-2.154-1.9,3.308,3.308,0,0,0-2.805.44.6.6,0,1,0,.677.986,2.118,2.118,0,0,1,1.8-.278,2.153,2.153,0,0,1,1.388,1.22,4.888,4.888,0,0,1,.264,2.416,6.541,6.541,0,0,1-2.716,3.66A2.777,2.777,0,0,0,121.873,115v1.737h-1.318V115a2.777,2.777,0,0,0-1.156-2.256,8.078,8.078,0,0,1-2.018-2.024.6.6,0,1,0-1,.659,9.279,9.279,0,0,0,2.32,2.339A1.579,1.579,0,0,1,119.36,115v1.737h-1.565V115.27a1.73,1.73,0,0,0-.856-1.495,8.415,8.415,0,1,1,8.422,0,1.722,1.722,0,0,0-.849,1.491.6.6,0,1,0,1.2,0,.523.523,0,0,1,.252-.455,9.611,9.611,0,0,0-4.943-17.933Zm-3.222,21.048h6.717v1.431a2.8,2.8,0,0,1-2.8,2.8h-1.12a2.8,2.8,0,0,1-2.8-2.8Z" transform="translate(-95.398 -82.733)" fill="#511156"/>
  <path id="Path_46" data-name="Path 46" d="M63.025,310.641a.576.576,0,0,0-.112.034.686.686,0,0,0-.1.054.73.73,0,0,0-.091.075.6.6,0,0,0,0,.846.733.733,0,0,0,.091.075.686.686,0,0,0,.1.054.571.571,0,0,0,.112.034.613.613,0,0,0,.117.012.6.6,0,1,0-.117-1.184Z" transform="translate(-54.131 -264.223)" fill="#511156"/>
  <path id="Path_47" data-name="Path 47" d="M312.4,70.024a.679.679,0,0,0-.055-.1.733.733,0,0,0-.075-.091.552.552,0,0,0-.091-.073.526.526,0,0,0-.1-.055.572.572,0,0,0-.112-.034.587.587,0,0,0-.613.254.571.571,0,0,0-.055.1.6.6,0,0,0-.034.112.616.616,0,0,0-.012.117.606.606,0,0,0,.012.117.56.56,0,0,0,.034.112.572.572,0,0,0,.055.1.585.585,0,0,0,.5.266.506.506,0,0,0,.117-.012.569.569,0,0,0,.112-.033.62.62,0,0,0,.1-.055.648.648,0,0,0,.091-.075.6.6,0,0,0,.175-.423.612.612,0,0,0-.01-.117A.742.742,0,0,0,312.4,70.024Z" transform="translate(-264.898 -59.885)" fill="#511156"/>
  <path id="Path_48" data-name="Path 48" d="M140.755,157.512a1.513,1.513,0,0,0,1.381.879c.028,0,.056,0,.084,0a1.5,1.5,0,0,0,1.351-1.017l.014-.042a3.926,3.926,0,0,0-.371-3.22,2.873,2.873,0,0,0-2.936-1.469c-2.017.176-2.665,1.992-2.606,3.5a.6.6,0,0,0,1.195-.047c-.025-.643.075-2.149,1.534-2.264a.6.6,0,0,0,.075-.011,1.543,1.543,0,0,1,.687.055A3.442,3.442,0,0,0,140.755,157.512Zm1.357-2.91q.038.056.075.118a2.731,2.731,0,0,1,.262,2.241l-.009.026a.3.3,0,0,1-.283.207.317.317,0,0,1-.317-.185,2.245,2.245,0,0,1,.271-2.408Z" transform="translate(-117.674 -130.205)" fill="#511156"/>
</svg>
