<svg xmlns="http://www.w3.org/2000/svg" width="48.993" height="49.998" viewBox="0 0 48.993 49.998">
  <g id="Marketing" transform="translate(-0.224 0)">
    <g id="_17-Percentage" data-name="17-Percentage" transform="translate(0 -0.002)">
      <path id="Path_80" data-name="Path 80" d="M34.031,57.437h-6.25A.781.781,0,0,1,27,56.656V35.562A1.562,1.562,0,0,1,28.562,34H33.25a1.562,1.562,0,0,1,1.562,1.562V56.656A.781.781,0,0,1,34.031,57.437Zm-5.469-1.562H33.25V35.562H28.562Z" transform="translate(-5.907 -7.437)" fill="#511156"/>
      <path id="Path_81" data-name="Path 81" d="M21.031,60.062h-6.25A.781.781,0,0,1,14,59.281V47.562A1.562,1.562,0,0,1,15.562,46H20.25a1.562,1.562,0,0,1,1.562,1.562V59.281A.781.781,0,0,1,21.031,60.062ZM15.562,58.5H20.25V47.562H15.562Z" transform="translate(-3.063 -10.062)" fill="#511156"/>
      <path id="Path_82" data-name="Path 82" d="M8.031,61.812H1.781A.781.781,0,0,1,1,61.031V55.562A1.562,1.562,0,0,1,2.562,54H7.25a1.562,1.562,0,0,1,1.562,1.562v5.469A.781.781,0,0,1,8.031,61.812ZM2.562,60.25H7.25V55.562H2.562Z" transform="translate(-0.219 -11.812)" fill="#511156"/>
      <path id="Path_83" data-name="Path 83" d="M47.031,54.374h-6.25A.781.781,0,0,1,40,53.593V21.562A1.562,1.562,0,0,1,41.562,20H46.25a1.562,1.562,0,0,1,1.562,1.562v32.03A.781.781,0,0,1,47.031,54.374Zm-5.469-1.562H46.25V21.562H41.562Z" transform="translate(-8.751 -4.374)" fill="#511156"/>
      <path id="Path_84" data-name="Path 84" d="M60.031,51.749h-6.25A.781.781,0,0,1,53,50.967V9.562A1.562,1.562,0,0,1,54.562,8H59.25a1.562,1.562,0,0,1,1.562,1.562v3.125H59.25V9.562H54.562V50.186H59.25V17.375h1.562V50.967A.781.781,0,0,1,60.031,51.749Z" transform="translate(-11.595 -1.749)" fill="#511156"/>
      <path id="Path_85" data-name="Path 85" d="M61,16h1.562v1.563H61Z" transform="translate(-13.345 -3.499)" fill="#511156"/>
      <path id="Path_91" data-name="Path 91" d="M1,62H49.436v1.562H1Z" transform="translate(-0.219 -13.562)" fill="#511156"/>
      <path id="Path_92" data-name="Path 92" d="M5.4,38.127l-1.1-1.1,8.593-8.593a.781.781,0,0,1,.552-.229h4.342l15.39-16.931a.781.781,0,0,1,.58-.255h1.984L44.876.349l1.186,1.016L36.687,12.3a.781.781,0,0,1-.593.274h-2L18.7,29.507a.781.781,0,0,1-.578.255H13.762Z" transform="translate(-0.939 -0.075)" fill="#511156"/>
      <path id="Path_93" data-name="Path 93" d="M0,0H2.209V1.562H0Z" transform="translate(0.225 40.069) rotate(-45)" fill="#511156"/>
      <path id="Path_94" data-name="Path 94" d="M56.687,4.687H55.125V1.562H52V0h3.906a.781.781,0,0,1,.781.781Z" transform="translate(-11.376 0.002)" fill="#511156"/>
    </g>
  </g>
</svg>
