<svg xmlns="http://www.w3.org/2000/svg" width="50" height="50" viewBox="0 0 50 50">
  <g id="Motion" transform="translate(-2 -2)">
    <g id="Outline" transform="translate(2 2)">
      <path id="Path_95" data-name="Path 95" d="M51.167,29.667a.833.833,0,0,0-.833.833v8.333a2.5,2.5,0,0,1-2.5,2.5H7A3.333,3.333,0,0,1,3.667,38V12.167a2.5,2.5,0,0,1,2.5-2.5H20.333a.833.833,0,0,0,0-1.667H6.167A4.172,4.172,0,0,0,2,12.167V38a5,5,0,0,0,5,5H17.454a8.13,8.13,0,0,1-4.386,4.175L11.007,48H9.5A2.5,2.5,0,0,0,7,50.5v1.667A.833.833,0,0,0,7.833,53H21.167a.833.833,0,1,0,0-1.667H8.667V50.5a.833.833,0,0,1,.833-.833h35a.833.833,0,0,1,.833.833v.833H24.5A.833.833,0,1,0,24.5,53H46.167A.833.833,0,0,0,47,52.167V50.5A2.5,2.5,0,0,0,44.5,48H42.993l-2.062-.825A8.13,8.13,0,0,1,36.546,43H47.833A4.172,4.172,0,0,0,52,38.833V30.5A.833.833,0,0,0,51.167,29.667ZM38.86,48H15.14a9.786,9.786,0,0,0,4.127-5H34.733A9.786,9.786,0,0,0,38.86,48Z" transform="translate(-2 -3)" fill="#511156"/>
      <path id="Path_96" data-name="Path 96" d="M53.667,8H37.833a.833.833,0,0,0,0,1.667H53.667a2.5,2.5,0,0,1,2.5,2.5v15a.833.833,0,1,0,1.667,0v-15A4.172,4.172,0,0,0,53.667,8Z" transform="translate(-7.833 -3)" fill="#511156"/>
      <path id="Path_97" data-name="Path 97" d="M19.386,11.707l-1.978,5.275a2.266,2.266,0,0,0,4.064,1.962l1.667-2.778h1.195a.833.833,0,1,0,1.667,0v-.833a.833.833,0,0,0-.833-.833h-2.5a.833.833,0,0,0-.714.4l-1.909,3.179a.6.6,0,0,1-1.075-.519l1.809-4.824L25.236,12h6.305l3.938,3.151a.833.833,0,0,0,.639.174l3.964-.567a.8.8,0,0,1,.64.189.791.791,0,0,1,.277.608.8.8,0,0,1-.7.8l-4.947.618-3.083-1.852A.833.833,0,0,0,31,15.833v2.833H25.167a.833.833,0,0,0-.822.7l-.738,4.429L19.94,24.5H16.833a.833.833,0,0,0-.833.833v5.833a.833.833,0,0,0,.833.833A4.167,4.167,0,0,0,20.7,29.368l7.051-.705a.833.833,0,0,0,.663-.457l2.127-4.254,2.211,1.1.763,4.583a.833.833,0,0,0,.82.694h2.5A2.505,2.505,0,0,1,39.191,32H34.333a.833.833,0,0,0,0,1.667h5.833A.833.833,0,0,0,41,32.833a4.167,4.167,0,0,0-2.647-3.87l-.692-6.222a.833.833,0,0,0-.366-.6l-4.629-3.086V17.3l2.071,1.242a.827.827,0,0,0,.533.113l5.232-.653a2.471,2.471,0,1,0-.656-4.9l-3.607.515-3.885-3.108a.833.833,0,0,0-.521-.182H31.37a3.3,3.3,0,0,0,.463-1.667V2.833A.833.833,0,0,0,31,2H29.333a4.172,4.172,0,0,0-4.167,4.167v2.5a3.3,3.3,0,0,0,.463,1.667h-.463a.75.75,0,0,0-.137.012l-5,.833a.833.833,0,0,0-.644.529Zm-.052,16.126a2.5,2.5,0,0,1-1.667,2.358V26.167h1.667Zm17.31.833h-1.6l-.717-4.3a.833.833,0,0,0-.449-.608l-3.333-1.667a.833.833,0,0,0-1.118.373L27.127,27.05,21,27.667V26l3.491-.675a.833.833,0,0,0,.667-.681l.715-4.311h5.711l4.468,2.978Zm-7.31-25h.833V5.333H26.976a2.505,2.505,0,0,1,2.358-1.667Zm-2.5,5V7h3.333V8.667a1.667,1.667,0,1,1-3.333,0Z" transform="translate(-4.333 -2)" fill="#511156"/>
      <path id="Path_98" data-name="Path 98" d="M20.333,40a2.5,2.5,0,0,0-2.347,1.667H12.833a.833.833,0,1,0,0,1.667h5.153a2.485,2.485,0,0,0,4.693,0H46.167a.833.833,0,1,0,0-1.667H22.68A2.5,2.5,0,0,0,20.333,40Zm0,3.333a.833.833,0,1,1,.833-.833A.833.833,0,0,1,20.333,43.333Z" transform="translate(-3.667 -8.333)" fill="#511156"/>
      <path id="Path_99" data-name="Path 99" d="M56.167,36A.833.833,0,0,0,57,35.167V21.833A.833.833,0,0,0,56.167,21H52.833a.833.833,0,0,0-.833.833V35.167a.833.833,0,0,0,.833.833Zm-2.5-6.667h1.667V31H53.667Zm1.667-1.667H53.667V26h1.667Zm0,6.667H53.667V32.667h1.667ZM53.667,22.667h1.667v1.667H53.667Z" transform="translate(-10.333 -5.167)" fill="#511156"/>
      <path id="Path_100" data-name="Path 100" d="M6.833,20.667h3.333a.833.833,0,1,0,0-1.667H6.833a.833.833,0,1,0,0,1.667Z" transform="translate(-2.667 -4.833)" fill="#511156"/>
      <path id="Path_101" data-name="Path 101" d="M6.833,24.667h3.333a.833.833,0,1,0,0-1.667H6.833a.833.833,0,1,0,0,1.667Z" transform="translate(-2.667 -5.5)" fill="#511156"/>
      <path id="Path_102" data-name="Path 102" d="M11,27.833A.833.833,0,0,0,10.167,27H6.833a.833.833,0,1,0,0,1.667h3.333A.833.833,0,0,0,11,27.833Z" transform="translate(-2.667 -6.167)" fill="#511156"/>
      <path id="Path_103" data-name="Path 103" d="M10.167,31.833A.833.833,0,0,0,9.333,31h-2.5a.833.833,0,0,0,0,1.667h2.5A.833.833,0,0,0,10.167,31.833Z" transform="translate(-2.667 -6.833)" fill="#511156"/>
      <path id="Path_104" data-name="Path 104" d="M6.833,35a.833.833,0,1,0,0,1.667H8.5A.833.833,0,1,0,8.5,35Z" transform="translate(-2.667 -7.5)" fill="#511156"/>
    </g>
  </g>
</svg>
