<svg id="Printing" xmlns="http://www.w3.org/2000/svg" width="43.333" height="50" viewBox="0 0 43.333 50">
  <g id="Page-1">
    <g id="_029---Printer" data-name="029---Printer">
      <path id="Shape" d="M39.167,15.833V11.667a2.5,2.5,0,0,0-2.5-2.5h-.833v-7.5A1.667,1.667,0,0,0,34.167,0h-25A1.667,1.667,0,0,0,7.5,1.667v7.5H6.667a2.5,2.5,0,0,0-2.5,2.5v4.167A4.172,4.172,0,0,0,0,20V38.333a2.5,2.5,0,0,0,2.5,2.5H5.9l-1.3,6.152A2.5,2.5,0,0,0,7.054,50H36.279a2.5,2.5,0,0,0,2.447-3.015l-1.3-6.152h3.4a2.5,2.5,0,0,0,2.5-2.5V20a4.172,4.172,0,0,0-4.167-4.167Zm-2.5-5a.833.833,0,0,1,.833.833v4.167H35.833v-5ZM9.167,1.667h25V15.833h-25Zm-3.333,10a.833.833,0,0,1,.833-.833H7.5v5H5.833ZM36.927,48.025a.833.833,0,0,1-.647.308H7.054a.833.833,0,0,1-.816-1.005L9.01,34.167H34.323l2.772,13.162a.833.833,0,0,1-.168.7Zm.157-8.858-1.061-5.037a.822.822,0,0,0,.644-.8.833.833,0,0,0-.833-.833H7.5a.833.833,0,0,0-.833.833.822.822,0,0,0,.648.8L6.25,39.167H5V30a.833.833,0,0,1,.833-.833H37.5a.833.833,0,0,1,.833.833v9.167Zm4.583-.833a.833.833,0,0,1-.833.833H40V30a2.5,2.5,0,0,0-2.5-2.5H5.833a2.5,2.5,0,0,0-2.5,2.5v9.167H2.5a.833.833,0,0,1-.833-.833V20a2.5,2.5,0,0,1,2.5-2.5h35a2.5,2.5,0,0,1,2.5,2.5Z" fill="#511156"/>
      <path id="Shape-2" data-name="Shape" d="M6.5,25H4.833a.833.833,0,0,0,0,1.667H6.5A.833.833,0,0,0,6.5,25Z" transform="translate(-0.667 -4.167)" fill="#511156"/>
      <path id="Shape-3" data-name="Shape" d="M12.5,25H10.833a.833.833,0,0,0,0,1.667H12.5A.833.833,0,0,0,12.5,25Z" transform="translate(-1.667 -4.167)" fill="#511156"/>
      <path id="Shape-4" data-name="Shape" d="M42,25H17.833a.833.833,0,1,0,0,1.667H42A.833.833,0,1,0,42,25Z" transform="translate(-2.833 -4.167)" fill="#511156"/>
      <path id="Shape-5" data-name="Shape" d="M17,44a5,5,0,1,0,3.5,8.567c.013-.012.028-.015.041-.028s.016-.028.028-.041A5,5,0,0,0,17,44Zm3.333,5a3.289,3.289,0,0,1-.472,1.683l-2.028-2.028v-2.87A3.333,3.333,0,0,1,20.332,49Zm-6.667,0a3.333,3.333,0,0,1,2.5-3.215V49a.833.833,0,0,0,.244.589l2.272,2.272A3.289,3.289,0,0,1,17,52.333,3.333,3.333,0,0,1,13.666,49Z" transform="translate(-1.999 -7.333)" fill="#511156"/>
      <path id="Shape-6" data-name="Shape" d="M28.5,53H26.833a.833.833,0,1,0,0,1.667H28.5A.833.833,0,1,0,28.5,53Z" transform="translate(-4.333 -8.833)" fill="#511156"/>
      <path id="Shape-7" data-name="Shape" d="M38.667,53H32.833a.833.833,0,0,0,0,1.667h5.833a.833.833,0,0,0,0-1.667Z" transform="translate(-5.333 -8.833)" fill="#511156"/>
      <path id="Shape-8" data-name="Shape" d="M26.833,50.667h7.5a.833.833,0,0,0,0-1.667h-7.5a.833.833,0,1,0,0,1.667Z" transform="translate(-4.333 -8.167)" fill="#511156"/>
      <path id="Shape-9" data-name="Shape" d="M26.833,46.667h2.5a.833.833,0,0,0,0-1.667h-2.5a.833.833,0,1,0,0,1.667Z" transform="translate(-4.333 -7.5)" fill="#511156"/>
      <path id="Shape-10" data-name="Shape" d="M33.833,46.667h3.333a.833.833,0,1,0,0-1.667H33.833a.833.833,0,0,0,0,1.667Z" transform="translate(-5.5 -7.5)" fill="#511156"/>
    </g>
  </g>
</svg>
