<svg xmlns="http://www.w3.org/2000/svg" width="50.007" height="50" viewBox="0 0 50.007 50">
  <path id="producing" d="M59.664,34.635V14.145a4.482,4.482,0,0,0-4.478-4.478H14.142a4.482,4.482,0,0,0-4.478,4.478V55.189a4.482,4.482,0,0,0,4.478,4.478H55.193a4.482,4.482,0,0,0,4.478-4.478V34.667C59.671,34.656,59.665,34.646,59.664,34.635Zm-2.239-20.49v19.4H49.589a1.119,1.119,0,0,0-1.119,1.119v2.816a1.981,1.981,0,0,1-1.763,2.031,1.874,1.874,0,0,1-1.38-.508,1.849,1.849,0,0,1-.582-1.353V34.667a1.119,1.119,0,0,0-1.119-1.119H35.782V26.831h1.866a4.124,4.124,0,0,0,2.978-1.279,4.078,4.078,0,0,0,1.121-3.044,4.02,4.02,0,0,0-.122-.793,4.238,4.238,0,0,0-4.145-3.093h-1.7V11.906h19.4a2.241,2.241,0,0,1,2.239,2.239Zm-45.522,0a2.241,2.241,0,0,1,2.239-2.239h19.4v7.836a1.12,1.12,0,0,0,1.119,1.119H37.48a1.98,1.98,0,0,1,2.031,1.764,1.864,1.864,0,0,1-1.862,1.967H34.664a1.12,1.12,0,0,0-1.119,1.119v7.836H26.828V31.682A4.124,4.124,0,0,0,25.549,28.7,4.052,4.052,0,0,0,22.5,27.583a4.193,4.193,0,0,0-3.886,4.267v1.7H11.9ZM33.545,57.428h-19.4A2.241,2.241,0,0,1,11.9,55.189v-19.4h7.836a1.12,1.12,0,0,0,1.119-1.119V31.851a1.981,1.981,0,0,1,1.764-2.032,1.935,1.935,0,0,1,.75.113,1.871,1.871,0,0,1,.531.316c.035.028.072.05.1.082a1.851,1.851,0,0,1,.582,1.353v2.984a1.12,1.12,0,0,0,1.119,1.119h7.836V42.5H31.679A4.121,4.121,0,0,0,28.7,43.784a4.066,4.066,0,0,0-1.121,3.044,4.193,4.193,0,0,0,4.267,3.886h1.7Zm23.887-2.239a2.241,2.241,0,0,1-2.239,2.239H35.79V49.592a1.119,1.119,0,0,0-1.119-1.119H31.854a1.981,1.981,0,0,1-2.032-1.764,1.866,1.866,0,0,1,1.864-1.967h2.985a1.119,1.119,0,0,0,1.119-1.119V35.786H42.5v1.866A4.084,4.084,0,0,0,45.188,41.5l.04.011a3.99,3.99,0,0,0,.732.187c.057.009.116.009.174.017a4.018,4.018,0,0,0,.467.044c.074,0,.149,0,.223-.006h.007a4.193,4.193,0,0,0,3.887-4.267v-1.7h6.717Z" transform="translate(-9.664 -9.667)" fill="#511156"/>
</svg>
