<svg xmlns="http://www.w3.org/2000/svg" width="51.337" height="50" viewBox="0 0 51.337 50">
  <g id="Production" transform="translate(0 -6.668)">
    <path id="Path_79" data-name="Path 79" d="M50.681,29.993a1.515,1.515,0,0,0-1.558-.244l-7.7,3.1H39.512V28.292a3.026,3.026,0,0,0-.763-2A10.847,10.847,0,1,0,24.8,25.255H16.531a7.168,7.168,0,1,0-10.955.074A3.041,3.041,0,0,0,3.2,28.292V29.3H1.138A1.139,1.139,0,0,0,0,30.439v4.425A1.139,1.139,0,0,0,1.138,36H3.2V47.929a3.041,3.041,0,0,0,3.038,3.038h6.031L10.35,55.714a.694.694,0,1,0,1.286.519l2.126-5.267H30.369l2.125,5.267a.694.694,0,1,0,1.286-.519l-1.916-4.747h4.609a3.041,3.041,0,0,0,3.038-3.038V43.373h1.911l7.689,3.16a1.513,1.513,0,0,0,1.565-.236,1.794,1.794,0,0,0,.66-1.428V31.418a1.8,1.8,0,0,0-.656-1.425ZM22.932,17.514a9.458,9.458,0,1,1,9.458,9.458A9.469,9.469,0,0,1,22.932,17.514ZM11.021,14.9a5.778,5.778,0,1,1-5.778,5.778A5.784,5.784,0,0,1,11.021,14.9ZM1.388,34.615V30.689H3.2v3.926ZM38.125,47.929a1.652,1.652,0,0,1-1.65,1.65H6.235a1.652,1.652,0,0,1-1.65-1.65V28.292a1.652,1.652,0,0,1,1.65-1.65H7.05a7.142,7.142,0,0,0,7.94,0H26.545a10.819,10.819,0,0,0,11.007.408,1.646,1.646,0,0,1,.572,1.242Zm1.388-13.693h1.355v7.75H39.512ZM49.95,44.869a.423.423,0,0,1-.144.349c-.077.063-.117.053-.166.033l-7.386-3.036v-8.2l7.387-2.975c.049-.02.089-.028.165.034a.425.425,0,0,1,.143.348v13.45ZM33.663,30.892h-3.3a1.382,1.382,0,0,0-1.381,1.381v3.3a1.382,1.382,0,0,0,1.381,1.381h3.3a1.382,1.382,0,0,0,1.381-1.381v-3.3A1.382,1.382,0,0,0,33.663,30.892Zm-3.293,4.68V32.279l3.288-.007.007,3.293Zm2.02-14.63a3.428,3.428,0,1,0-3.428-3.428A3.432,3.432,0,0,0,32.39,20.942Zm0-5.469a2.04,2.04,0,1,1-2.041,2.041A2.043,2.043,0,0,1,32.39,15.473ZM11.021,23.1A2.418,2.418,0,1,0,8.6,20.682,2.421,2.421,0,0,0,11.021,23.1Zm0-3.448a1.03,1.03,0,1,1-1.031,1.03A1.031,1.031,0,0,1,11.021,19.651ZM35.044,41.511a.694.694,0,0,1-.694.694H11.129a.694.694,0,0,1,0-1.388H34.35A.694.694,0,0,1,35.044,41.511ZM10.435,33.922a.694.694,0,0,1,.694-.694H23.694a.694.694,0,1,1,0,1.388H11.129a.694.694,0,0,1-.694-.694Z" transform="translate(0 0)" fill="#511156"/>
  </g>
</svg>
