<svg id="Social" xmlns="http://www.w3.org/2000/svg" width="49.986" height="50" viewBox="0 0 49.986 50">
  <path id="Path_49" data-name="Path 49" d="M44.135,31.032a19.671,19.671,0,0,0,.006-12.061A9.8,9.8,0,0,0,40.407,0a9.817,9.817,0,0,0-8.893,6.339,19.676,19.676,0,0,0-12.046,0A9.8,9.8,0,1,0,6.845,18.966a19.675,19.675,0,0,0,0,12.066A9.814,9.814,0,0,0,.5,40.2a9.708,9.708,0,0,0,.95,4.214.733.733,0,1,0,1.322-.631A8.253,8.253,0,0,1,1.965,40.2a8.333,8.333,0,1,1,2.693,6.134.732.732,0,1,0-.992,1.078,9.8,9.8,0,0,0,15.807-3.775,19.678,19.678,0,0,0,12.038,0A9.8,9.8,0,1,0,44.135,31.032ZM34.628,4.077a8.279,8.279,0,0,1,5.82-2.608c.081,0,.161,0,.242,0a8.333,8.333,0,0,1,.235,16.662c-.081,0-.161,0-.242,0A8.333,8.333,0,0,1,34.628,4.077ZM31.1,42.233a18.213,18.213,0,0,1-11.217,0A9.8,9.8,0,0,0,8.256,30.62a18.206,18.206,0,0,1-.005-11.24,9.811,9.811,0,0,0,6.837-1.033.732.732,0,0,0-.717-1.277,8.338,8.338,0,1,1,2.374-1.991.732.732,0,1,0,1.133.929,9.8,9.8,0,0,0,2-8.257,18.21,18.21,0,0,1,11.222,0A9.81,9.81,0,0,0,40.683,19.6c.094,0,.189,0,.284,0a9.9,9.9,0,0,0,1.767-.21,18.2,18.2,0,0,1-.006,11.239A9.8,9.8,0,0,0,31.1,42.233Zm9.586,6.3A8.333,8.333,0,1,1,49.02,40.2a8.342,8.342,0,0,1-8.333,8.332Zm0,0" transform="translate(-0.5 0)" fill="#511156"/>
  <path id="Path_50" data-name="Path 50" d="M50.84,54.851a.72.72,0,0,0-.82.007,4.052,4.052,0,0,1-.784.432,2.678,2.678,0,0,0-4.31,1.81,3.927,3.927,0,0,1-2.638-1.631.721.721,0,0,0-1.248.122A6.1,6.1,0,0,0,40.6,58.1a4.4,4.4,0,0,0,1.771,3.407,4.373,4.373,0,0,1-1.515.209.72.72,0,0,0-.379,1.349A7.264,7.264,0,0,0,44,64.008a6.352,6.352,0,0,0,3.235-.871,6.021,6.021,0,0,0,2.628-3.208.748.748,0,0,0,.038-.108,7.484,7.484,0,0,0,.383-2.411c0-.038,0-.075,0-.113a4.1,4.1,0,0,0,.856-1.68.721.721,0,0,0-.295-.766Zm-2.021,2.334a1.23,1.23,0,0,1,.022.227,6.069,6.069,0,0,1-.3,1.951.688.688,0,0,0-.027.084A4.563,4.563,0,0,1,46.5,61.895a4.953,4.953,0,0,1-2.89.657,5.736,5.736,0,0,0,.675-.393.721.721,0,0,0-.112-1.254,3.2,3.2,0,0,1-2.137-2.825,4.165,4.165,0,0,1,.026-.742,5.368,5.368,0,0,0,3.585,1.245.72.72,0,0,0,.7-.72v-.447a1.237,1.237,0,0,1,2.17-.828.719.719,0,0,0,.33.215.723.723,0,0,0-.031.383Zm0,0" transform="translate(-36.3 -49.468)" fill="#511156"/>
  <path id="Path_51" data-name="Path 51" d="M380.56,48.342h1.021v4.3a.72.72,0,1,0,1.441,0v-4.3h1.112a.72.72,0,0,0,0-1.441h-1.112V44.887a1.257,1.257,0,0,1,1.255-1.255h.933a.72.72,0,1,0,0-1.441h-.933a2.7,2.7,0,0,0-2.7,2.7V46.9H380.56a.72.72,0,0,0,0,1.441Zm0,0" transform="translate(-342.581 -38.139)" fill="#511156"/>
  <path id="Path_52" data-name="Path 52" d="M74.487,378.5a.991.991,0,0,0,.5-.132l4.9-2.832a.991.991,0,0,0,0-1.716l-4.9-2.832a.991.991,0,0,0-1.487.858v5.664a.991.991,0,0,0,.991.991Zm.449-5.876,3.555,2.053-3.555,2.053Zm0,0" transform="translate(-66.486 -334.41)" fill="#511156"/>
  <path id="Path_53" data-name="Path 53" d="M367.13,358.555h-6.26a1.974,1.974,0,0,0-1.972,1.972v6.259a1.974,1.974,0,0,0,1.972,1.972h6.26a1.974,1.974,0,0,0,1.972-1.972v-6.259A1.974,1.974,0,0,0,367.13,358.555Zm.531,8.231a.532.532,0,0,1-.531.532h-6.26a.532.532,0,0,1-.531-.532v-6.259a.532.532,0,0,1,.531-.532h6.26a.532.532,0,0,1,.531.532Zm0,0" transform="translate(-323.65 -323.292)" fill="#511156"/>
  <path id="Path_54" data-name="Path 54" d="M391.525,389a2.177,2.177,0,1,0,2.177,2.177A2.18,2.18,0,0,0,391.525,389Zm0,2.914a.737.737,0,1,1,.737-.736A.738.738,0,0,1,391.525,391.918Zm0,0" transform="translate(-351.313 -350.954)" fill="#511156"/>
  <path id="Path_55" data-name="Path 55" d="M199.12,178.094a.72.72,0,0,0-.72.72v.323a21.338,21.338,0,0,1-5.884,2.378.831.831,0,0,0-.508-.174h-3.3a1.446,1.446,0,0,0-1.445,1.445v3.783a1.446,1.446,0,0,0,1.445,1.445h.659l.25,4.8a.72.72,0,0,0,.719.683h.038a.72.72,0,0,0,.682-.757l-.246-4.728h1.2a.829.829,0,0,0,.508-.174c.584.141,1.166.307,1.734.5a.72.72,0,0,0,.454-1.367c-.61-.2-1.235-.381-1.863-.532v-3.516a22.842,22.842,0,0,0,5.559-2.127v7.771q-.475-.257-.959-.489a.72.72,0,0,0-.624,1.3c.536.258,1.067.542,1.583.846v.321a.72.72,0,0,0,1.441,0V178.814A.72.72,0,0,0,199.12,178.094Zm-7.719,8.478-2.695,0,0-3.787H191.4Zm0,0" transform="translate(-168.923 -160.57)" fill="#511156"/>
</svg>
