<svg id="Software" xmlns="http://www.w3.org/2000/svg" width="56.422" height="50" viewBox="0 0 56.422 50">
  <g id="Group_16" data-name="Group 16" transform="translate(0 0)">
    <path id="Path_69" data-name="Path 69" d="M54.22,7H9.633a2.2,2.2,0,0,0-2.2,2.2v5.229H2.2a2.174,2.174,0,0,0-2.2,2.2V54.8A2.2,2.2,0,0,0,2.2,57H46.789a2.2,2.2,0,0,0,2.2-2.2V49.569H54.22a2.2,2.2,0,0,0,2.2-2.2V9.2A2.174,2.174,0,0,0,54.22,7ZM9.633,8.835H54.22a.362.362,0,0,1,.367.367v6.33H9.266V9.2a.362.362,0,0,1,.367-.367ZM2.2,16.266H7.431v6.7h-5.6v-6.33a.362.362,0,0,1,.367-.367ZM47.156,54.8a.362.362,0,0,1-.367.367H2.2a.362.362,0,0,1-.367-.367v-30h5.6V47.367a2.2,2.2,0,0,0,2.2,2.2H47.156Zm7.064-7.064H9.633a.362.362,0,0,1-.367-.367v-30H54.587v30a.362.362,0,0,1-.367.367Z" transform="translate(0 -7)" fill="#511156"/>
    <path id="Path_70" data-name="Path 70" d="M31.94,17.7H28.6a.9.9,0,1,1,0-1.8H31.94a.9.9,0,1,1,0,1.8Z" transform="translate(-14.972 -11.885)" fill="#511156"/>
    <path id="Path_71" data-name="Path 71" d="M48.84,17.7H45.5a.9.9,0,0,1,0-1.8H48.84a.9.9,0,1,1,0,1.8Z" transform="translate(-24.107 -11.885)" fill="#511156"/>
  </g>
  <path id="Path_72" data-name="Path 72" d="M38.9,56.094l8.571,4.421V58.8l-6.586-3.293,6.586-3.293V50.5L38.9,54.876Z" transform="translate(-21.002 -30.461)" fill="#511156"/>
  <path id="Path_73" data-name="Path 73" d="M62.1,57.982h1.624L68.776,44.9H67.107Z" transform="translate(-33.549 -27.41)" fill="#511156"/>
  <path id="Path_74" data-name="Path 74" d="M81,50.5v1.714l6.631,3.293L81,58.8v1.714l8.571-4.421V54.876Z" transform="translate(-43.732 -30.461)" fill="#511156"/>
</svg>
