<svg id="Support" xmlns="http://www.w3.org/2000/svg" width="49.826" height="50" viewBox="0 0 49.826 50">
  <path id="Path_63" data-name="Path 63" d="M246,6.248a.967.967,0,0,0,.967-.967V.967a.967.967,0,0,0-1.934,0V5.281A.967.967,0,0,0,246,6.248Z" transform="translate(-221.178 0)" fill="#511156"/>
  <path id="Path_64" data-name="Path 64" d="M49.76,108l-1.737-1.738a3.285,3.285,0,0,0-3.9-.558l-3.274-3.28.159-.16a3.432,3.432,0,0,0,0-4.835A3.373,3.373,0,0,0,39.3,96.5a3.456,3.456,0,0,0,.136-.96,3.413,3.413,0,0,0-2.709-3.346,3.455,3.455,0,0,0,.136-.96,3.41,3.41,0,0,0-2.709-3.345,3.41,3.41,0,0,0-3.638-4.358L24.026,82.3a3.5,3.5,0,0,0-3.005.4,1.779,1.779,0,0,0-.149.155,3.409,3.409,0,0,0-4.585,3.21,3.46,3.46,0,0,0,.135.96,3.414,3.414,0,0,0-2.708,3.343,3.45,3.45,0,0,0,.136.963,3.425,3.425,0,0,0-2.114,5.279,3.388,3.388,0,0,0-1.31.818,3.433,3.433,0,0,0,0,4.838l.159.159L7.312,105.7a3.281,3.281,0,0,0-3.72.647l-1.738,1.739a3.3,3.3,0,0,0,0,4.654l2.17,2.174a.985.985,0,0,0,1.39-1.4l-2.17-2.174a1.326,1.326,0,0,1,0-1.862l1.739-1.739a1.314,1.314,0,0,1,1.6-.2,1,1,0,0,0,.124.152.979.979,0,0,0,.283.2l9.97,9.987a.97.97,0,0,0,.474.481,1.323,1.323,0,0,1-.055,1.8l-1.737,1.74a1.318,1.318,0,0,1-1.86,0l-2.17-2.177a.985.985,0,0,0-1.391,1.4l2.171,2.178a3.286,3.286,0,0,0,4.638,0l1.738-1.741a3.307,3.307,0,0,0,.46-4.074l3.685-3.692.012-.012c.422-.438,1.6-.356,2.733-.277a14.1,14.1,0,0,0,2.587.017l4.036,4.044a3.305,3.305,0,0,0,.558,3.906l1.738,1.741a3.281,3.281,0,0,0,4.639,0l10.541-10.562a3.3,3.3,0,0,0,0-4.655ZM23.66,84.238l4.266.81-2.554,2.561a6.2,6.2,0,0,1-1.53-1.116A4.541,4.541,0,0,1,22.4,84.251h0a.865.865,0,0,1,0-.1A3.322,3.322,0,0,1,23.66,84.238Zm-4.986.8a1.447,1.447,0,0,1,1.835-.174,7.059,7.059,0,0,0,1.974,3.051,7.281,7.281,0,0,0,2.834,1.761A1.445,1.445,0,0,1,23.11,91.53h0l-4.435-4.441a1.456,1.456,0,0,1,0-2.045ZM16.1,89.348a1.447,1.447,0,0,1,2.044,0l3.571,3.576a1.455,1.455,0,0,1,0,2.048,1.456,1.456,0,0,1-2.048,0h0l-2.709-2.717-.013-.012-.848-.85a1.451,1.451,0,0,1,0-2.046Zm-2.575,4.3a1.452,1.452,0,0,1,2.037-.007l2.718,2.725a1.446,1.446,0,0,1-2.045,2.044l-.985-.987h0L13.529,95.7a1.455,1.455,0,0,1,0-2.048Zm-1.713,5.171a1.451,1.451,0,0,1,2.047,0l.987.989a1.446,1.446,0,0,1-2.046,2.043l-.124-.123,0,0-.006-.005-.852-.852a1.452,1.452,0,0,1,0-2.046Zm20.042,11.213a.981.981,0,0,0-1.391,0l-.875.877c-.831.834-2.338.729-3.795.628-1.582-.11-3.218-.224-4.277.866l-3.623,3.63L8.84,106.962l3.206-3.21a3.412,3.412,0,0,0,5.192-2.918c0-.009,0-.017,0-.025h.025a3.407,3.407,0,0,0,3.409-3.416c0-.009,0-.017,0-.025H20.7a3.4,3.4,0,0,0,3.409-3.442h.026a3.425,3.425,0,0,0,2.911-5.2l2.81-2.818a1.441,1.441,0,0,1,.738-.395c.029,0,.058-.008.087-.014A1.445,1.445,0,0,1,31.9,87.952l-.856.855-.009.008-.986.987a.985.985,0,0,0,1.39,1.4l.859-.861h0l.13-.13a1.446,1.446,0,0,1,2.039,2.05l-.861.865h0l-.986.985a.985.985,0,0,0,1.388,1.4l.99-.989a1.446,1.446,0,0,1,2.043,2.047L35.33,98.285a.989.989,0,0,0,0,1.4.981.981,0,0,0,1.391,0l.841-.844.015-.013a1.447,1.447,0,0,1,2.043,0,1.452,1.452,0,0,1,0,2.045l-.855.857h0l-1.357,1.36a.989.989,0,0,0,0,1.4.981.981,0,0,0,1.391,0l.664-.665,3.181,3.188-9.058,9.076-3.246-3.252a3.869,3.869,0,0,0,.646-.521l.875-.876a.988.988,0,0,0,0-1.4Zm16.512,1.222L37.829,121.82a1.319,1.319,0,0,1-1.859,0l-1.738-1.741a1.322,1.322,0,0,1,0-1.859l10.541-10.562a1.319,1.319,0,0,1,1.86,0l1.737,1.738a1.326,1.326,0,0,1,0,1.862Z" transform="translate(-0.894 -74.264)" fill="#511156"/>
  <path id="Path_65" data-name="Path 65" d="M85.532,7.914A.967.967,0,0,0,86.9,6.545L83.374,3.028A.967.967,0,0,0,82.007,4.4Z" transform="translate(-73.813 -2.481)" fill="#511156"/>
  <path id="Path_66" data-name="Path 66" d="M372.618,8.2a.964.964,0,0,0,.683-.283L376.824,4.4a.967.967,0,1,0-1.367-1.369l-3.522,3.517a.967.967,0,0,0,.684,1.651Z" transform="translate(-335.369 -2.482)" fill="#511156"/>
  <path id="Path_67" data-name="Path 67" d="M60.207,430.482a.967.967,0,0,0,.012,1.368l0,0a.967.967,0,1,0-.014-1.37Z" transform="translate(-54.26 -388.05)" fill="#511156"/>
  <path id="Path_68" data-name="Path 68" d="M333.479,334.053a.967.967,0,1,0-.435-1.831l-.005,0a.967.967,0,0,0,.44,1.829Z" transform="translate(-300.103 -299.662)" fill="#511156"/>
</svg>
