<svg id="Ux" xmlns="http://www.w3.org/2000/svg" width="49.286" height="50" viewBox="0 0 49.286 50">
  <g id="Group_12" data-name="Group 12" transform="translate(0 0)">
    <path id="Path_56" data-name="Path 56" d="M57.56,9.01a1.85,1.85,0,1,0-1.85-1.85A1.849,1.849,0,0,0,57.56,9.01Zm0-2.381a.539.539,0,0,1,0,1.077.539.539,0,0,1,0-1.077Z" transform="translate(-12.95 -2.32)" fill="#511156"/>
    <path id="Path_57" data-name="Path 57" d="M48.551,1.48H9.909A2.671,2.671,0,0,0,7.244,4.145V8.214H4.595A2.671,2.671,0,0,0,1.93,10.879V44.294a2.671,2.671,0,0,0,2.665,2.665H22.306v3.855a.67.67,0,0,0,.666.666H35.488a.67.67,0,0,0,.666-.666V46.959h7.083A2.671,2.671,0,0,0,45.9,44.294V40.225h2.649a2.671,2.671,0,0,0,2.665-2.665V4.145A2.671,2.671,0,0,0,48.551,1.48ZM8.577,4.145A1.335,1.335,0,0,1,9.909,2.812H48.551a1.335,1.335,0,0,1,1.332,1.332V9.99H24.6L21.624,6.905a1.219,1.219,0,0,0-.872-.373H14.2a1.219,1.219,0,0,0-1.214,1.214V9.99H8.577ZM4.595,45.634A1.335,1.335,0,0,1,3.262,44.3V10.879A1.335,1.335,0,0,1,4.595,9.546H7.244V37.568a2.671,2.671,0,0,0,2.665,2.665H24.376a3.076,3.076,0,0,1,.333,1.666H23.678a1.373,1.373,0,0,0-1.372,1.372v2.364ZM28.572,31.683a.754.754,0,0,1,.658-.389.745.745,0,0,1,.746.746.753.753,0,0,1-.373.65.833.833,0,0,1-.865-.04.22.22,0,0,1-.1-.1A.838.838,0,0,1,28.572,31.683Zm-.008-1.594a2.063,2.063,0,0,0-1.15.952,2.172,2.172,0,0,0,.111,2.229,1.666,1.666,0,0,0,.563.539,2.351,2.351,0,0,0,1.15.317,2.073,2.073,0,0,0,.658-4.037V26.662L35.789,37.3a.086.086,0,0,1-.04.032A4.483,4.483,0,0,0,32.411,41.9H26.058a4.574,4.574,0,0,0-3.379-4.632l5.885-10.6Zm6.258,20.059H23.638l.04-6.924h11.1a.037.037,0,0,1,.04.04Zm9.748-5.853a1.335,1.335,0,0,1-1.332,1.332H36.154V43.263a1.373,1.373,0,0,0-1.372-1.372H33.751a3.15,3.15,0,0,1,.333-1.666H44.57ZM48.551,38.9H35.377a2.867,2.867,0,0,1,.7-.286,1.413,1.413,0,0,0,.936-.8,1.355,1.355,0,0,0-.063-1.2L30.126,24.331a1.009,1.009,0,0,0-.888-.531,1.043,1.043,0,0,0-.9.523L21.5,36.616a1.382,1.382,0,0,0,.872,2,3,3,0,0,1,.7.286H9.909a1.335,1.335,0,0,1-1.332-1.332V11.323H13.1a1.219,1.219,0,0,0,1.214-1.214V7.865H20.7L23.67,10.95a1.219,1.219,0,0,0,.872.373H49.884V37.56a1.337,1.337,0,0,1-1.332,1.34Z" transform="translate(-1.93 -1.48)" fill="#511156"/>
    <path id="Path_58" data-name="Path 58" d="M51.84,9.01a1.85,1.85,0,1,0-1.85-1.85A1.849,1.849,0,0,0,51.84,9.01Zm0-2.381a.539.539,0,1,1,0,1.077.539.539,0,0,1,0-1.077Z" transform="translate(-11.822 -2.32)" fill="#511156"/>
    <path id="Path_59" data-name="Path 59" d="M46.11,9.01a1.85,1.85,0,1,0-1.85-1.85A1.849,1.849,0,0,0,46.11,9.01Zm0-2.381a.539.539,0,0,1,0,1.077.539.539,0,1,1,0-1.077Z" transform="translate(-10.643 -2.32)" fill="#511156"/>
    <path id="Path_60" data-name="Path 60" d="M44.2,20.951a2.606,2.606,0,0,0-.718,1.382H34.308V21.3a1.273,1.273,0,0,0-1.273-1.273H30.077A1.273,1.273,0,0,0,28.8,21.3v1.031H19.639a2.6,2.6,0,0,0-.718-1.39,2.653,2.653,0,0,0-3.654.008,2.582,2.582,0,0,0,0,3.654,2.521,2.521,0,0,0,1.827.765,2.815,2.815,0,0,0,1.28-.312A2.3,2.3,0,0,0,19.4,24a3.3,3.3,0,0,0,.141-.351h6.363a13.034,13.034,0,0,0-6.972,8.681H17.922A1.273,1.273,0,0,0,16.649,33.6v2.959a1.273,1.273,0,0,0,1.273,1.273H20.88a1.273,1.273,0,0,0,1.273-1.273V33.6a1.273,1.273,0,0,0-1.273-1.273h-.593a11.713,11.713,0,0,1,8.541-8.353v.281A1.273,1.273,0,0,0,30.1,25.526h2.959a1.273,1.273,0,0,0,1.273-1.273v-.281a11.738,11.738,0,0,1,8.541,8.353h-.539A1.273,1.273,0,0,0,41.061,33.6v2.959a1.273,1.273,0,0,0,1.273,1.273h2.959a1.273,1.273,0,0,0,1.273-1.273V33.6a1.273,1.273,0,0,0-1.273-1.273h-1.07a13.059,13.059,0,0,0-6.972-8.681H43.63a2.582,2.582,0,0,0,2.428,1.725,2.815,2.815,0,0,0,1.28-.312A2.3,2.3,0,0,0,48.369,24a2.634,2.634,0,0,0-.476-3.052A2.71,2.71,0,0,0,44.2,20.951ZM18.21,23.442a1,1,0,0,1-.437.445,1.3,1.3,0,0,1-1.585-.211,1.238,1.238,0,0,1-.375-.9,1.3,1.3,0,0,1,.375-.906,1.282,1.282,0,0,1,1.8-.008A1.361,1.361,0,0,1,18.21,23.442Zm2.654,13.077-2.92.039-.039-2.92h2.92Zm24.4,0-2.92.039-.039-2.92h2.92ZM30.124,24.261l-.016-.984a.677.677,0,0,0,.008-.219v-.008c0-.023.016-.039.016-.062a.387.387,0,0,0-.023-.1l-.023-1.538H33l.023,1.538A.547.547,0,0,0,33,23a.184.184,0,0,0,.016.062v.008a.67.67,0,0,0,.016.281l.016.882Zm17.027-.82a1,1,0,0,1-.437.445,1.3,1.3,0,0,1-1.585-.211,1.238,1.238,0,0,1-.375-.9,1.3,1.3,0,0,1,.375-.906,1.282,1.282,0,0,1,1.8-.008A1.361,1.361,0,0,1,47.151,23.442Z" transform="translate(-3.915 -5.186)" fill="#511156"/>
  </g>
</svg>
